<svg width="1067" height="400" viewBox="0 0 1067 400" fill="none" xmlns="http://www.w3.org/2000/svg">
<g clip-path="url(#clip0_36_3)">
<rect x="0.286865" width="1066.67" height="400" fill="white"/>
<g opacity="0.66" clip-path="url(#clip1_36_3)">
<path d="M20.3835 -28.342H-8.12292V0.173374H20.3835V-28.342Z" stroke="#DDDDDD" stroke-width="1.5"/>
<path d="M48.89 -28.342H20.3835V0.173374H48.89V-28.342Z" stroke="#DDDDDD" stroke-width="1.5"/>
<path d="M77.3965 -28.342H48.89V0.173374H77.3965V-28.342Z" fill="#E2E7F0" fill-opacity="0.3" stroke="#DDDDDD" stroke-width="1.5"/>
<path d="M105.903 -28.342H77.3965V0.173374H105.903V-28.342Z" stroke="#DDDDDD" stroke-width="1.5"/>
<path d="M134.409 -28.342H105.903V0.173374H134.409V-28.342Z" stroke="#DDDDDD" stroke-width="1.5"/>
<path d="M162.916 -28.342H134.409V0.173374H162.916V-28.342Z" stroke="#DDDDDD" stroke-width="1.5"/>
<path d="M191.422 -28.342H162.916V0.173374H191.422V-28.342Z" stroke="#DDDDDD" stroke-width="1.5"/>
<path d="M219.929 -28.342H191.422V0.173374H219.929V-28.342Z" stroke="#DDDDDD" stroke-width="1.5"/>
<path d="M248.435 -28.342H219.929V0.173374H248.435V-28.342Z" fill="#E2E7F0" fill-opacity="0.3" stroke="#DDDDDD" stroke-width="1.5"/>
<path d="M276.942 -28.342H248.435V0.173374H276.942V-28.342Z" stroke="#DDDDDD" stroke-width="1.5"/>
<path d="M305.448 -28.342H276.942V0.173374H305.448V-28.342Z" stroke="#DDDDDD" stroke-width="1.5"/>
<path d="M333.955 -28.342H305.448V0.173374H333.955V-28.342Z" stroke="#DDDDDD" stroke-width="1.5"/>
<path d="M619.019 -28.342H590.513V0.173374H619.019V-28.342Z" stroke="#DDDDDD" stroke-width="1.5"/>
<path d="M647.526 -28.342H619.019V0.173374H647.526V-28.342Z" stroke="#DDDDDD" stroke-width="1.5"/>
<path d="M676.032 -28.342H647.526V0.173374H676.032V-28.342Z" stroke="#DDDDDD" stroke-width="1.5"/>
<path d="M704.539 -28.342H676.032V0.173374H704.539V-28.342Z" stroke="#DDDDDD" stroke-width="1.5"/>
<path d="M733.045 -28.342H704.539V0.173374H733.045V-28.342Z" fill="#E2E7F0" fill-opacity="0.3" stroke="#DDDDDD" stroke-width="1.5"/>
<path d="M761.552 -28.342H733.045V0.173374H761.552V-28.342Z" stroke="#DDDDDD" stroke-width="1.5"/>
<path d="M790.058 -28.342H761.552V0.173374H790.058V-28.342Z" stroke="#DDDDDD" stroke-width="1.5"/>
<path d="M818.565 -28.342H790.058V0.173374H818.565V-28.342Z" fill="#E2E7F0" fill-opacity="0.3" stroke="#DDDDDD" stroke-width="1.5"/>
<path d="M847.071 -28.342H818.565V0.173374H847.071V-28.342Z" stroke="#DDDDDD" stroke-width="1.5"/>
<path d="M875.578 -28.342H847.071V0.173374H875.578V-28.342Z" stroke="#DDDDDD" stroke-width="1.5"/>
<path d="M904.084 -28.342H875.578V0.173374H904.084V-28.342Z" stroke="#DDDDDD" stroke-width="1.5"/>
<path d="M932.591 -28.342H904.084V0.173374H932.591V-28.342Z" stroke="#DDDDDD" stroke-width="1.5"/>
<path d="M961.097 -28.342H932.591V0.173374H961.097V-28.342Z" stroke="#DDDDDD" stroke-width="1.5"/>
<path d="M989.604 -28.342H961.097V0.173374H989.604V-28.342Z" stroke="#DDDDDD" stroke-width="1.5"/>
<path d="M1018.11 -28.342H989.604V0.173374H1018.11V-28.342Z" stroke="#DDDDDD" stroke-width="1.5"/>
<path d="M1046.62 -28.342H1018.11V0.173374H1046.62V-28.342Z" stroke="#DDDDDD" stroke-width="1.5"/>
<path d="M1075.12 -28.342H1046.62V0.173374H1075.12V-28.342Z" fill="#E2E7F0" fill-opacity="0.3" stroke="#DDDDDD" stroke-width="1.5"/>
<path d="M20.3835 0.173374H-8.12292V28.6887H20.3835V0.173374Z" stroke="#DDDDDD" stroke-width="1.5"/>
<path d="M48.89 0.173374H20.3835V28.6887H48.89V0.173374Z" stroke="#DDDDDD" stroke-width="1.5"/>
<path d="M77.3965 0.173374H48.89V28.6887H77.3965V0.173374Z" stroke="#DDDDDD" stroke-width="1.5"/>
<path d="M105.903 0.173374H77.3965V28.6887H105.903V0.173374Z" stroke="#DDDDDD" stroke-width="1.5"/>
<path d="M134.409 0.173374H105.903V28.6887H134.409V0.173374Z" stroke="#DDDDDD" stroke-width="1.5"/>
<path d="M162.916 0.173374H134.409V28.6887H162.916V0.173374Z" stroke="#DDDDDD" stroke-width="1.5"/>
<path d="M191.422 0.173374H162.916V28.6887H191.422V0.173374Z" fill="#E2E7F0" fill-opacity="0.3" stroke="#DDDDDD" stroke-width="1.5"/>
<path d="M219.929 0.173374H191.422V28.6887H219.929V0.173374Z" stroke="#DDDDDD" stroke-width="1.5"/>
<path d="M333.955 0.173374H305.448V28.6887H333.955V0.173374Z" stroke="#DDDDDD" stroke-width="1.5"/>
<path d="M362.461 0.173374H333.955V28.6887H362.461V0.173374Z" stroke="#DDDDDD" stroke-width="1.5"/>
<path d="M390.968 0.173374H362.461V28.6887H390.968V0.173374Z" stroke="#DDDDDD" stroke-width="1.5"/>
<path d="M419.474 0.173374H390.968V28.6887H419.474V0.173374Z" stroke="#DDDDDD" stroke-width="1.5"/>
<path d="M447.981 0.173374H419.474V28.6887H447.981V0.173374Z" stroke="#DDDDDD" stroke-width="1.5"/>
<path d="M476.487 0.173374H447.981V28.6887H476.487V0.173374Z" stroke="#DDDDDD" stroke-width="1.5"/>
<path d="M904.084 0.173374H875.578V28.6887H904.084V0.173374Z" stroke="#DDDDDD" stroke-width="1.5"/>
<path d="M932.591 0.173374H904.084V28.6887H932.591V0.173374Z" fill="#E2E7F0" fill-opacity="0.3" stroke="#DDDDDD" stroke-width="1.5"/>
<path d="M961.097 0.173374H932.591V28.6887H961.097V0.173374Z" stroke="#DDDDDD" stroke-width="1.5"/>
<path d="M989.604 0.173374H961.097V28.6887H989.604V0.173374Z" stroke="#DDDDDD" stroke-width="1.5"/>
<path d="M1018.11 0.173374H989.604V28.6887H1018.11V0.173374Z" stroke="#DDDDDD" stroke-width="1.5"/>
<path d="M1046.62 0.173374H1018.11V28.6887H1046.62V0.173374Z" stroke="#DDDDDD" stroke-width="1.5"/>
<path d="M1075.12 0.173374H1046.62V28.6887H1075.12V0.173374Z" stroke="#DDDDDD" stroke-width="1.5"/>
<path d="M20.3835 28.6887H-8.12292V57.204H20.3835V28.6887Z" stroke="#DDDDDD" stroke-width="1.5"/>
<path d="M48.89 28.6887H20.3835V57.204H48.89V28.6887Z" stroke="#DDDDDD" stroke-width="1.5"/>
<path d="M77.3965 28.6887H48.89V57.204H77.3965V28.6887Z" stroke="#DDDDDD" stroke-width="1.5"/>
<path d="M105.903 28.6887H77.3965V57.204H105.903V28.6887Z" stroke="#DDDDDD" stroke-width="1.5"/>
<path d="M134.409 28.6887H105.903V57.204H134.409V28.6887Z" stroke="#DDDDDD" stroke-width="1.5"/>
<path d="M162.916 28.6887H134.409V57.204H162.916V28.6887Z" stroke="#DDDDDD" stroke-width="1.5"/>
<path d="M333.955 28.6887H305.448V57.204H333.955V28.6887Z" stroke="#DDDDDD" stroke-width="1.5"/>
<path d="M619.019 28.6887H590.513V57.204H619.019V28.6887Z" stroke="#DDDDDD" stroke-width="1.5"/>
<path d="M647.526 28.6887H619.019V57.204H647.526V28.6887Z" stroke="#DDDDDD" stroke-width="1.5"/>
<path d="M676.032 28.6887H647.526V57.204H676.032V28.6887Z" stroke="#DDDDDD" stroke-width="1.5"/>
<path d="M704.539 28.6887H676.032V57.204H704.539V28.6887Z" stroke="#DDDDDD" stroke-width="1.5"/>
<path d="M733.045 28.6887H704.539V57.204H733.045V28.6887Z" stroke="#DDDDDD" stroke-width="1.5"/>
<path d="M761.552 28.6887H733.045V57.204H761.552V28.6887Z" stroke="#DDDDDD" stroke-width="1.5"/>
<path d="M790.058 28.6887H761.552V57.204H790.058V28.6887Z" stroke="#DDDDDD" stroke-width="1.5"/>
<path d="M961.097 28.6887H932.591V57.204H961.097V28.6887Z" stroke="#DDDDDD" stroke-width="1.5"/>
<path d="M989.604 28.6887H961.097V57.204H989.604V28.6887Z" stroke="#DDDDDD" stroke-width="1.5"/>
<path d="M1018.11 28.6887H989.604V57.204H1018.11V28.6887Z" stroke="#DDDDDD" stroke-width="1.5"/>
<path d="M1046.62 28.6887H1018.11V57.204H1046.62V28.6887Z" stroke="#DDDDDD" stroke-width="1.5"/>
<path d="M1075.12 28.6887H1046.62V57.204H1075.12V28.6887Z" stroke="#DDDDDD" stroke-width="1.5"/>
<path d="M20.3835 57.204H-8.12292V85.7193H20.3835V57.204Z" stroke="#DDDDDD" stroke-width="1.5"/>
<path d="M48.89 57.204H20.3835V85.7193H48.89V57.204Z" stroke="#DDDDDD" stroke-width="1.5"/>
<path d="M77.3965 57.204H48.89V85.7193H77.3965V57.204Z" stroke="#DDDDDD" stroke-width="1.5"/>
<path d="M105.903 57.204H77.3965V85.7193H105.903V57.204Z" stroke="#DDDDDD" stroke-width="1.5"/>
<path d="M134.409 57.204H105.903V85.7193H134.409V57.204Z" stroke="#DDDDDD" stroke-width="1.5"/>
<path d="M162.916 57.204H134.409V85.7193H162.916V57.204Z" stroke="#DDDDDD" stroke-width="1.5"/>
<path d="M191.422 57.204H162.916V85.7193H191.422V57.204Z" stroke="#DDDDDD" stroke-width="1.5"/>
<path d="M219.929 57.204H191.422V85.7193H219.929V57.204Z" stroke="#DDDDDD" stroke-width="1.5"/>
<path d="M790.058 57.204H761.552V85.7193H790.058V57.204Z" stroke="#DDDDDD" stroke-width="1.5"/>
<path d="M847.071 57.204H818.565V85.7193H847.071V57.204Z" fill="#E2E7F0" fill-opacity="0.3" stroke="#DDDDDD" stroke-width="1.5"/>
<path d="M875.578 57.204H847.071V85.7193H875.578V57.204Z" stroke="#DDDDDD" stroke-width="1.5"/>
<path d="M904.084 57.204H875.578V85.7193H904.084V57.204Z" stroke="#DDDDDD" stroke-width="1.5"/>
<path d="M932.591 57.204H904.084V85.7193H932.591V57.204Z" stroke="#DDDDDD" stroke-width="1.5"/>
<path d="M961.097 57.204H932.591V85.7193H961.097V57.204Z" stroke="#DDDDDD" stroke-width="1.5"/>
<path d="M989.604 57.204H961.097V85.7193H989.604V57.204Z" fill="#E2E7F0" fill-opacity="0.3" stroke="#DDDDDD" stroke-width="1.5"/>
<path d="M1018.11 57.204H989.604V85.7193H1018.11V57.204Z" stroke="#DDDDDD" stroke-width="1.5"/>
<path d="M1046.62 57.204H1018.11V85.7193H1046.62V57.204Z" stroke="#DDDDDD" stroke-width="1.5"/>
<path d="M1075.12 57.204H1046.62V85.7193H1075.12V57.204Z" fill="#E2E7F0" fill-opacity="0.3" stroke="#DDDDDD" stroke-width="1.5"/>
<path d="M20.3835 85.7193H-8.12292V114.235H20.3835V85.7193Z" stroke="#DDDDDD" stroke-width="1.5"/>
<path d="M48.89 85.7193H20.3835V114.235H48.89V85.7193Z" fill="#E2E7F0" fill-opacity="0.3" stroke="#DDDDDD" stroke-width="1.5"/>
<path d="M77.3965 85.7193H48.89V114.235H77.3965V85.7193Z" stroke="#DDDDDD" stroke-width="1.5"/>
<path d="M191.422 85.7193H162.916V114.235H191.422V85.7193Z" fill="#E2E7F0" fill-opacity="0.3" stroke="#DDDDDD" stroke-width="1.5"/>
<path d="M219.929 85.7193H191.422V114.235H219.929V85.7193Z" stroke="#DDDDDD" stroke-width="1.5"/>
<path d="M276.942 85.7193H248.435V114.235H276.942V85.7193Z" stroke="#DDDDDD" stroke-width="1.5"/>
<path d="M790.058 85.7193H761.552V114.235H790.058V85.7193Z" stroke="#DDDDDD" stroke-width="1.5"/>
<path d="M818.565 85.7193H790.058V114.235H818.565V85.7193Z" stroke="#DDDDDD" stroke-width="1.5"/>
<path d="M904.084 85.7193H875.578V114.235H904.084V85.7193Z" stroke="#DDDDDD" stroke-width="1.5"/>
<path d="M932.591 85.7193H904.084V114.235H932.591V85.7193Z" stroke="#DDDDDD" stroke-width="1.5"/>
<path d="M961.097 85.7193H932.591V114.235H961.097V85.7193Z" stroke="#DDDDDD" stroke-width="1.5"/>
<path d="M1075.12 85.7193H1046.62V114.235H1075.12V85.7193Z" stroke="#DDDDDD" stroke-width="1.5"/>
<path d="M20.3835 114.235H-8.12292V142.75H20.3835V114.235Z" stroke="#DDDDDD" stroke-width="1.5"/>
<path d="M48.89 114.235H20.3835V142.75H48.89V114.235Z" stroke="#DDDDDD" stroke-width="1.5"/>
<path d="M77.3965 114.235H48.89V142.75H77.3965V114.235Z" stroke="#DDDDDD" stroke-width="1.5"/>
<path d="M105.903 114.235H77.3965V142.75H105.903V114.235Z" stroke="#DDDDDD" stroke-width="1.5"/>
<path d="M134.409 114.235H105.903V142.75H134.409V114.235Z" stroke="#DDDDDD" stroke-width="1.5"/>
<path d="M162.916 114.235H134.409V142.75H162.916V114.235Z" stroke="#DDDDDD" stroke-width="1.5"/>
<path d="M305.448 114.235H276.942V142.75H305.448V114.235Z" stroke="#DDDDDD" stroke-width="1.5"/>
<path d="M333.955 114.235H305.448V142.75H333.955V114.235Z" stroke="#DDDDDD" stroke-width="1.5"/>
<path d="M619.019 114.235H590.513V142.75H619.019V114.235Z" stroke="#DDDDDD" stroke-width="1.5"/>
<path d="M647.526 114.235H619.019V142.75H647.526V114.235Z" stroke="#DDDDDD" stroke-width="1.5"/>
<path d="M676.032 114.235H647.526V142.75H676.032V114.235Z" stroke="#DDDDDD" stroke-width="1.5"/>
<path d="M704.539 114.235H676.032V142.75H704.539V114.235Z" stroke="#DDDDDD" stroke-width="1.5"/>
<path d="M733.045 114.235H704.539V142.75H733.045V114.235Z" stroke="#DDDDDD" stroke-width="1.5"/>
<path d="M761.552 114.235H733.045V142.75H761.552V114.235Z" stroke="#DDDDDD" stroke-width="1.5"/>
<path d="M818.565 114.235H790.058V142.75H818.565V114.235Z" stroke="#DDDDDD" stroke-width="1.5"/>
<path d="M847.071 114.235H818.565V142.75H847.071V114.235Z" fill="#E2E7F0" fill-opacity="0.3" stroke="#DDDDDD" stroke-width="1.5"/>
<path d="M961.097 114.235H932.591V142.75H961.097V114.235Z" stroke="#DDDDDD" stroke-width="1.5"/>
<path d="M989.604 114.235H961.097V142.75H989.604V114.235Z" stroke="#DDDDDD" stroke-width="1.5"/>
<path d="M1018.11 114.235H989.604V142.75H1018.11V114.235Z" stroke="#DDDDDD" stroke-width="1.5"/>
<path d="M1046.62 114.235H1018.11V142.75H1046.62V114.235Z" stroke="#DDDDDD" stroke-width="1.5"/>
<path d="M1075.12 114.235H1046.62V142.75H1075.12V114.235Z" stroke="#DDDDDD" stroke-width="1.5"/>
<path d="M20.3835 142.75H-8.12292V171.265H20.3835V142.75Z" stroke="#DDDDDD" stroke-width="1.5"/>
<path d="M48.89 142.75H20.3835V171.265H48.89V142.75Z" stroke="#DDDDDD" stroke-width="1.5"/>
<path d="M77.3965 142.75H48.89V171.265H77.3965V142.75Z" stroke="#DDDDDD" stroke-width="1.5"/>
<path d="M105.903 142.75H77.3965V171.265H105.903V142.75Z" stroke="#DDDDDD" stroke-width="1.5"/>
<path d="M134.409 142.75H105.903V171.265H134.409V142.75Z" stroke="#DDDDDD" stroke-width="1.5"/>
<path d="M162.916 142.75H134.409V171.265H162.916V142.75Z" stroke="#DDDDDD" stroke-width="1.5"/>
<path d="M191.422 142.75H162.916V171.265H191.422V142.75Z" stroke="#DDDDDD" stroke-width="1.5"/>
<path d="M219.929 142.75H191.422V171.265H219.929V142.75Z" stroke="#DDDDDD" stroke-width="1.5"/>
<path d="M875.578 142.75H847.071V171.265H875.578V142.75Z" stroke="#DDDDDD" stroke-width="1.5"/>
<path d="M904.084 142.75H875.578V171.265H904.084V142.75Z" stroke="#DDDDDD" stroke-width="1.5"/>
<path d="M932.591 142.75H904.084V171.265H932.591V142.75Z" stroke="#DDDDDD" stroke-width="1.5"/>
<path d="M961.097 142.75H932.591V171.265H961.097V142.75Z" stroke="#DDDDDD" stroke-width="1.5"/>
<path d="M989.604 142.75H961.097V171.265H989.604V142.75Z" fill="#E2E7F0" fill-opacity="0.3" stroke="#DDDDDD" stroke-width="1.5"/>
<path d="M1018.11 142.75H989.604V171.265H1018.11V142.75Z" stroke="#DDDDDD" stroke-width="1.5"/>
<path d="M1046.62 142.75H1018.11V171.265H1046.62V142.75Z" stroke="#DDDDDD" stroke-width="1.5"/>
<path d="M1075.12 142.75H1046.62V171.265H1075.12V142.75Z" stroke="#DDDDDD" stroke-width="1.5"/>
<path d="M20.3835 171.265H-8.12292V199.781H20.3835V171.265Z" fill="#E2E7F0" fill-opacity="0.3" stroke="#DDDDDD" stroke-width="1.5"/>
<path d="M48.89 171.265H20.3835V199.781H48.89V171.265Z" stroke="#DDDDDD" stroke-width="1.5"/>
<path d="M77.3965 171.265H48.89V199.781H77.3965V171.265Z" stroke="#DDDDDD" stroke-width="1.5"/>
<path d="M191.422 171.265H162.916V199.781H191.422V171.265Z" fill="#E2E7F0" fill-opacity="0.3" stroke="#DDDDDD" stroke-width="1.5"/>
<path d="M219.929 171.265H191.422V199.781H219.929V171.265Z" stroke="#DDDDDD" stroke-width="1.5"/>
<path d="M276.942 171.265H248.435V199.781H276.942V171.265Z" stroke="#DDDDDD" stroke-width="1.5"/>
<path d="M305.448 171.265H276.942V199.781H305.448V171.265Z" stroke="#DDDDDD" stroke-width="1.5"/>
<path d="M847.071 171.265H818.565V199.781H847.071V171.265Z" stroke="#DDDDDD" stroke-width="1.5"/>
<path d="M875.578 171.265H847.071V199.781H875.578V171.265Z" fill="#E2E7F0" fill-opacity="0.3" stroke="#DDDDDD" stroke-width="1.5"/>
<path d="M904.084 171.265H875.578V199.781H904.084V171.265Z" stroke="#DDDDDD" stroke-width="1.5"/>
<path d="M932.591 171.265H904.084V199.781H932.591V171.265Z" stroke="#DDDDDD" stroke-width="1.5"/>
<path d="M961.097 171.265H932.591V199.781H961.097V171.265Z" stroke="#DDDDDD" stroke-width="1.5"/>
<path d="M1075.12 171.265H1046.62V199.781H1075.12V171.265Z" stroke="#DDDDDD" stroke-width="1.5"/>
<path d="M20.3835 199.781H-8.12292V228.296H20.3835V199.781Z" stroke="#DDDDDD" stroke-width="1.5"/>
<path d="M48.89 199.781H20.3835V228.296H48.89V199.781Z" stroke="#DDDDDD" stroke-width="1.5"/>
<path d="M77.3965 199.781H48.89V228.296H77.3965V199.781Z" stroke="#DDDDDD" stroke-width="1.5"/>
<path d="M105.903 199.781H77.3965V228.296H105.903V199.781Z" stroke="#DDDDDD" stroke-width="1.5"/>
<path d="M134.409 199.781H105.903V228.296H134.409V199.781Z" stroke="#DDDDDD" stroke-width="1.5"/>
<path d="M162.916 199.781H134.409V228.296H162.916V199.781Z" fill="#E2E7F0" fill-opacity="0.3" stroke="#DDDDDD" stroke-width="1.5"/>
<path d="M305.448 199.781H276.942V228.296H305.448V199.781Z" stroke="#DDDDDD" stroke-width="1.5"/>
<path d="M333.955 199.781H305.448V228.296H333.955V199.781Z" stroke="#DDDDDD" stroke-width="1.5"/>
<path d="M619.019 199.781H590.513V228.296H619.019V199.781Z" stroke="#DDDDDD" stroke-width="1.5"/>
<path d="M647.526 199.781H619.019V228.296H647.526V199.781Z" stroke="#DDDDDD" stroke-width="1.5"/>
<path d="M676.032 199.781H647.526V228.296H676.032V199.781Z" stroke="#DDDDDD" stroke-width="1.5"/>
<path d="M704.539 199.781H676.032V228.296H704.539V199.781Z" stroke="#DDDDDD" stroke-width="1.5"/>
<path d="M733.045 199.781H704.539V228.296H733.045V199.781Z" stroke="#DDDDDD" stroke-width="1.5"/>
<path d="M761.552 199.781H733.045V228.296H761.552V199.781Z" stroke="#DDDDDD" stroke-width="1.5"/>
<path d="M790.058 199.781H761.552V228.296H790.058V199.781Z" stroke="#DDDDDD" stroke-width="1.5"/>
<path d="M818.565 199.781H790.058V228.296H818.565V199.781Z" stroke="#DDDDDD" stroke-width="1.5"/>
<path d="M989.604 199.781H961.097V228.296H989.604V199.781Z" stroke="#DDDDDD" stroke-width="1.5"/>
<path d="M1018.11 199.781H989.604V228.296H1018.11V199.781Z" stroke="#DDDDDD" stroke-width="1.5"/>
<path d="M1046.62 199.781H1018.11V228.296H1046.62V199.781Z" stroke="#DDDDDD" stroke-width="1.5"/>
<path d="M1075.12 199.781H1046.62V228.296H1075.12V199.781Z" stroke="#DDDDDD" stroke-width="1.5"/>
<path d="M20.3835 228.296H-8.12292V256.811H20.3835V228.296Z" stroke="#DDDDDD" stroke-width="1.5"/>
<path d="M48.89 228.296H20.3835V256.811H48.89V228.296Z" stroke="#DDDDDD" stroke-width="1.5"/>
<path d="M77.3965 228.296H48.89V256.811H77.3965V228.296Z" stroke="#DDDDDD" stroke-width="1.5"/>
<path d="M105.903 228.296H77.3965V256.811H105.903V228.296Z" fill="#E2E7F0" fill-opacity="0.3" stroke="#DDDDDD" stroke-width="1.5"/>
<path d="M134.409 228.296H105.903V256.811H134.409V228.296Z" stroke="#DDDDDD" stroke-width="1.5"/>
<path d="M162.916 228.296H134.409V256.811H162.916V228.296Z" stroke="#DDDDDD" stroke-width="1.5"/>
<path d="M191.422 228.296H162.916V256.811H191.422V228.296Z" stroke="#DDDDDD" stroke-width="1.5"/>
<path d="M219.929 228.296H191.422V256.811H219.929V228.296Z" stroke="#DDDDDD" stroke-width="1.5"/>
<path d="M305.448 228.296H276.942V256.811H305.448V228.296Z" stroke="#DDDDDD" stroke-width="1.5"/>
<path d="M818.565 228.296H790.058V256.811H818.565V228.296Z" stroke="#DDDDDD" stroke-width="1.5"/>
<path d="M847.071 228.296H818.565V256.811H847.071V228.296Z" stroke="#DDDDDD" stroke-width="1.5"/>
<path d="M989.604 228.296H961.097V256.811H989.604V228.296Z" stroke="#DDDDDD" stroke-width="1.5"/>
<path d="M1018.11 228.296H989.604V256.811H1018.11V228.296Z" stroke="#DDDDDD" stroke-width="1.5"/>
<path d="M1046.62 228.296H1018.11V256.811H1046.62V228.296Z" fill="#E2E7F0" fill-opacity="0.3" stroke="#DDDDDD" stroke-width="1.5"/>
<path d="M1075.12 228.296H1046.62V256.811H1075.12V228.296Z" stroke="#DDDDDD" stroke-width="1.5"/>
<path d="M20.3835 256.811H-8.12292V285.327H20.3835V256.811Z" stroke="#DDDDDD" stroke-width="1.5"/>
<path d="M105.903 256.811H77.3965V285.327H105.903V256.811Z" stroke="#DDDDDD" stroke-width="1.5"/>
<path d="M191.422 256.811H162.916V285.327H191.422V256.811Z" stroke="#DDDDDD" stroke-width="1.5"/>
<path d="M219.929 256.811H191.422V285.327H219.929V256.811Z" fill="#E2E7F0" fill-opacity="0.3" stroke="#DDDDDD" stroke-width="1.5"/>
<path d="M333.955 256.811H305.448V285.327H333.955V256.811Z" stroke="#DDDDDD" stroke-width="1.5"/>
<path d="M362.461 256.811H333.955V285.327H362.461V256.811Z" stroke="#DDDDDD" stroke-width="1.5"/>
<path d="M390.968 256.811H362.461V285.327H390.968V256.811Z" stroke="#DDDDDD" stroke-width="1.5"/>
<path d="M419.474 256.811H390.968V285.327H419.474V256.811Z" fill="#E2E7F0" fill-opacity="0.3" stroke="#DDDDDD" stroke-width="1.5"/>
<path d="M447.981 256.811H419.474V285.327H447.981V256.811Z" stroke="#DDDDDD" stroke-width="1.5"/>
<path d="M476.487 256.811H447.981V285.327H476.487V256.811Z" stroke="#DDDDDD" stroke-width="1.5"/>
<path d="M790.058 256.811H761.552V285.327H790.058V256.811Z" stroke="#DDDDDD" stroke-width="1.5"/>
<path opacity="0.99" d="M818.565 256.811H790.058V285.327H818.565V256.811Z" stroke="#DDDDDD" stroke-width="1.5"/>
<path d="M904.084 256.811H875.578V285.327H904.084V256.811Z" stroke="#DDDDDD" stroke-width="1.5"/>
<path d="M932.591 256.811H904.084V285.327H932.591V256.811Z" stroke="#DDDDDD" stroke-width="1.5"/>
<path d="M961.097 256.811H932.591V285.327H961.097V256.811Z" stroke="#DDDDDD" stroke-width="1.5"/>
<path d="M1075.12 256.811H1046.62V285.327H1075.12V256.811Z" stroke="#DDDDDD" stroke-width="1.5"/>
<path d="M20.3835 285.327H-8.12292V313.842H20.3835V285.327Z" stroke="#DDDDDD" stroke-width="1.5"/>
<path d="M48.89 285.327H20.3835V313.842H48.89V285.327Z" stroke="#DDDDDD" stroke-width="1.5"/>
<path d="M77.3965 285.327H48.89V313.842H77.3965V285.327Z" stroke="#DDDDDD" stroke-width="1.5"/>
<path d="M105.903 285.327H77.3965V313.842H105.903V285.327Z" stroke="#DDDDDD" stroke-width="1.5"/>
<path d="M134.409 285.327H105.903V313.842H134.409V285.327Z" stroke="#DDDDDD" stroke-width="1.5"/>
<path d="M419.474 285.327H390.968V313.842H419.474V285.327Z" stroke="#DDDDDD" stroke-width="1.5"/>
<path d="M447.981 285.327H419.474V313.842H447.981V285.327Z" stroke="#DDDDDD" stroke-width="1.5"/>
<path d="M476.487 285.327H447.981V313.842H476.487V285.327Z" stroke="#DDDDDD" stroke-width="1.5"/>
<path d="M676.032 285.327H647.526V313.842H676.032V285.327Z" stroke="#DDDDDD" stroke-width="1.5"/>
<path d="M704.539 285.327H676.032V313.842H704.539V285.327Z" stroke="#DDDDDD" stroke-width="1.5"/>
<path d="M733.045 285.327H704.539V313.842H733.045V285.327Z" stroke="#DDDDDD" stroke-width="1.5"/>
<path d="M761.552 285.327H733.045V313.842H761.552V285.327Z" stroke="#DDDDDD" stroke-width="1.5"/>
<path d="M790.058 285.327H761.552V313.842H790.058V285.327Z" fill="#E2E7F0" fill-opacity="0.3" stroke="#DDDDDD" stroke-width="1.5"/>
<path d="M818.565 285.327H790.058V313.842H818.565V285.327Z" stroke="#DDDDDD" stroke-width="1.5"/>
<path d="M847.071 285.327H818.565V313.842H847.071V285.327Z" stroke="#DDDDDD" stroke-width="1.5"/>
<path d="M904.084 285.327H875.578V313.842H904.084V285.327Z" stroke="#DDDDDD" stroke-width="1.5"/>
<path d="M932.591 285.327H904.084V313.842H932.591V285.327Z" stroke="#DDDDDD" stroke-width="1.5"/>
<path d="M961.097 285.327H932.591V313.842H961.097V285.327Z" stroke="#DDDDDD" stroke-width="1.5"/>
<path d="M989.604 285.327H961.097V313.842H989.604V285.327Z" fill="#E2E7F0" fill-opacity="0.3" stroke="#DDDDDD" stroke-width="1.5"/>
<path d="M1018.11 285.327H989.604V313.842H1018.11V285.327Z" stroke="#DDDDDD" stroke-width="1.5"/>
<path d="M1046.62 285.327H1018.11V313.842H1046.62V285.327Z" stroke="#DDDDDD" stroke-width="1.5"/>
<path d="M1075.12 285.327H1046.62V313.842H1075.12V285.327Z" stroke="#DDDDDD" stroke-width="1.5"/>
<path d="M20.3835 313.842H-8.12292V342.357H20.3835V313.842Z" stroke="#DDDDDD" stroke-width="1.5"/>
<path d="M48.89 313.842H20.3835V342.357H48.89V313.842Z" stroke="#DDDDDD" stroke-width="1.5"/>
<path d="M77.3965 313.842H48.89V342.357H77.3965V313.842Z" fill="#E2E7F0" fill-opacity="0.3" stroke="#DDDDDD" stroke-width="1.5"/>
<path d="M105.903 313.842H77.3965V342.357H105.903V313.842Z" stroke="#DDDDDD" stroke-width="1.5"/>
<path d="M134.409 313.842H105.903V342.357H134.409V313.842Z" stroke="#DDDDDD" stroke-width="1.5"/>
<path d="M162.916 313.842H134.409V342.357H162.916V313.842Z" stroke="#DDDDDD" stroke-width="1.5"/>
<path d="M191.422 313.842H162.916V342.357H191.422V313.842Z" stroke="#DDDDDD" stroke-width="1.5"/>
<path d="M219.929 313.842H191.422V342.357H219.929V313.842Z" stroke="#DDDDDD" stroke-width="1.5"/>
<path d="M248.435 313.842H219.929V342.357H248.435V313.842Z" stroke="#DDDDDD" stroke-width="1.5"/>
<path d="M276.942 313.842H248.435V342.357H276.942V313.842Z" stroke="#DDDDDD" stroke-width="1.5"/>
<path d="M305.448 313.842H276.942V342.357H305.448V313.842Z" stroke="#DDDDDD" stroke-width="1.5"/>
<path d="M333.955 313.842H305.448V342.357H333.955V313.842Z" stroke="#DDDDDD" stroke-width="1.5"/>
<path d="M362.461 313.842H333.955V342.357H362.461V313.842Z" fill="#E2E7F0" fill-opacity="0.3" stroke="#DDDDDD" stroke-width="1.5"/>
<path d="M619.019 313.842H590.513V342.357H619.019V313.842Z" stroke="#DDDDDD" stroke-width="1.5"/>
<path d="M647.526 313.842H619.019V342.357H647.526V313.842Z" stroke="#DDDDDD" stroke-width="1.5"/>
<path d="M676.032 313.842H647.526V342.357H676.032V313.842Z" stroke="#DDDDDD" stroke-width="1.5"/>
<path d="M704.539 313.842H676.032V342.357H704.539V313.842Z" stroke="#DDDDDD" stroke-width="1.5"/>
<path d="M733.045 313.842H704.539V342.357H733.045V313.842Z" fill="#E2E7F0" fill-opacity="0.3" stroke="#DDDDDD" stroke-width="1.5"/>
<path d="M761.552 313.842H733.045V342.357H761.552V313.842Z" stroke="#DDDDDD" stroke-width="1.5"/>
<path d="M790.058 313.842H761.552V342.357H790.058V313.842Z" stroke="#DDDDDD" stroke-width="1.5"/>
<path d="M818.565 313.842H790.058V342.357H818.565V313.842Z" stroke="#DDDDDD" stroke-width="1.5"/>
<path d="M847.071 313.842H818.565V342.357H847.071V313.842Z" stroke="#DDDDDD" stroke-width="1.5"/>
<path d="M875.578 313.842H847.071V342.357H875.578V313.842Z" stroke="#DDDDDD" stroke-width="1.5"/>
<path d="M904.084 313.842H875.578V342.357H904.084V313.842Z" stroke="#DDDDDD" stroke-width="1.5"/>
<path d="M932.591 313.842H904.084V342.357H932.591V313.842Z" stroke="#DDDDDD" stroke-width="1.5"/>
<path d="M961.097 313.842H932.591V342.357H961.097V313.842Z" stroke="#DDDDDD" stroke-width="1.5"/>
<path d="M989.604 313.842H961.097V342.357H989.604V313.842Z" stroke="#DDDDDD" stroke-width="1.5"/>
<path d="M1018.11 313.842H989.604V342.357H1018.11V313.842Z" stroke="#DDDDDD" stroke-width="1.5"/>
<path d="M1046.62 313.842H1018.11V342.357H1046.62V313.842Z" stroke="#DDDDDD" stroke-width="1.5"/>
<path d="M1075.12 313.842H1046.62V342.357H1075.12V313.842Z" stroke="#DDDDDD" stroke-width="1.5"/>
<path d="M20.3835 342.357H-8.12292V370.873H20.3835V342.357Z" stroke="#DDDDDD" stroke-width="1.5"/>
<path d="M48.89 342.357H20.3835V370.873H48.89V342.357Z" stroke="#DDDDDD" stroke-width="1.5"/>
<path d="M77.3965 342.357H48.89V370.873H77.3965V342.357Z" stroke="#DDDDDD" stroke-width="1.5"/>
<path d="M105.903 342.357H77.3965V370.873H105.903V342.357Z" stroke="#DDDDDD" stroke-width="1.5"/>
<path d="M134.409 342.357H105.903V370.873H134.409V342.357Z" stroke="#DDDDDD" stroke-width="1.5"/>
<path d="M162.916 342.357H134.409V370.873H162.916V342.357Z" fill="#E2E7F0" fill-opacity="0.3" stroke="#DDDDDD" stroke-width="1.5"/>
<path d="M305.448 342.357H276.942V370.873H305.448V342.357Z" stroke="#DDDDDD" stroke-width="1.5"/>
<path d="M333.955 342.357H305.448V370.873H333.955V342.357Z" stroke="#DDDDDD" stroke-width="1.5"/>
<path d="M619.019 342.357H590.513V370.873H619.019V342.357Z" stroke="#DDDDDD" stroke-width="1.5"/>
<path d="M647.526 342.357H619.019V370.873H647.526V342.357Z" stroke="#DDDDDD" stroke-width="1.5"/>
<path d="M676.032 342.357H647.526V370.873H676.032V342.357Z" stroke="#DDDDDD" stroke-width="1.5"/>
<path d="M704.539 342.357H676.032V370.873H704.539V342.357Z" stroke="#DDDDDD" stroke-width="1.5"/>
<path d="M733.045 342.357H704.539V370.873H733.045V342.357Z" stroke="#DDDDDD" stroke-width="1.5"/>
<path d="M761.552 342.357H733.045V370.873H761.552V342.357Z" stroke="#DDDDDD" stroke-width="1.5"/>
<path d="M790.058 342.357H761.552V370.873H790.058V342.357Z" stroke="#DDDDDD" stroke-width="1.5"/>
<path d="M818.565 342.357H790.058V370.873H818.565V342.357Z" stroke="#DDDDDD" stroke-width="1.5"/>
<path d="M989.604 342.357H961.097V370.873H989.604V342.357Z" stroke="#DDDDDD" stroke-width="1.5"/>
<path d="M1018.11 342.357H989.604V370.873H1018.11V342.357Z" stroke="#DDDDDD" stroke-width="1.5"/>
<path d="M1046.62 342.357H1018.11V370.873H1046.62V342.357Z" stroke="#DDDDDD" stroke-width="1.5"/>
<path d="M1075.12 342.357H1046.62V370.873H1075.12V342.357Z" stroke="#DDDDDD" stroke-width="1.5"/>
<path d="M20.3835 370.873H-8.12292V399.388H20.3835V370.873Z" stroke="#DDDDDD" stroke-width="1.5"/>
<path d="M48.89 370.873H20.3835V399.388H48.89V370.873Z" stroke="#DDDDDD" stroke-width="1.5"/>
<path d="M77.3965 370.873H48.89V399.388H77.3965V370.873Z" stroke="#DDDDDD" stroke-width="1.5"/>
<path d="M105.903 370.873H77.3965V399.388H105.903V370.873Z" stroke="#DDDDDD" stroke-width="1.5"/>
<path d="M134.409 370.873H105.903V399.388H134.409V370.873Z" stroke="#DDDDDD" stroke-width="1.5"/>
<path d="M162.916 370.873H134.409V399.388H162.916V370.873Z" stroke="#DDDDDD" stroke-width="1.5"/>
<path d="M191.422 370.873H162.916V399.388H191.422V370.873Z" stroke="#DDDDDD" stroke-width="1.5"/>
<path d="M219.929 370.873H191.422V399.388H219.929V370.873Z" stroke="#DDDDDD" stroke-width="1.5"/>
<path d="M276.942 370.873H248.435V399.388H276.942V370.873Z" stroke="#DDDDDD" stroke-width="1.5"/>
<path d="M305.448 370.873H276.942V399.388H305.448V370.873Z" stroke="#DDDDDD" stroke-width="1.5"/>
<path d="M333.955 370.873H305.448V399.388H333.955V370.873Z" stroke="#DDDDDD" stroke-width="1.5"/>
<path d="M362.461 370.873H333.955V399.388H362.461V370.873Z" stroke="#DDDDDD" stroke-width="1.5"/>
<path d="M562.006 370.873H533.5V399.388H562.006V370.873Z" stroke="#DDDDDD" stroke-width="1.5"/>
<path d="M590.513 370.873H562.006V399.388H590.513V370.873Z" stroke="#DDDDDD" stroke-width="1.5"/>
<path d="M619.019 370.873H590.513V399.388H619.019V370.873Z" stroke="#DDDDDD" stroke-width="1.5"/>
<path d="M647.526 370.873H619.019V399.388H647.526V370.873Z" stroke="#DDDDDD" stroke-width="1.5"/>
<path d="M676.032 370.873H647.526V399.388H676.032V370.873Z" stroke="#DDDDDD" stroke-width="1.5"/>
<path d="M704.539 370.873H676.032V399.388H704.539V370.873Z" stroke="#DDDDDD" stroke-width="1.5"/>
<path d="M733.045 370.873H704.539V399.388H733.045V370.873Z" stroke="#DDDDDD" stroke-width="1.5"/>
<path d="M790.058 370.873H761.552V399.388H790.058V370.873Z" stroke="#DDDDDD" stroke-width="1.5"/>
<path d="M847.071 370.873H818.565V399.388H847.071V370.873Z" fill="#E2E7F0" fill-opacity="0.3" stroke="#DDDDDD" stroke-width="1.5"/>
<path d="M875.578 370.873H847.071V399.388H875.578V370.873Z" stroke="#DDDDDD" stroke-width="1.5"/>
<path d="M1046.62 370.873H1018.11V399.388H1046.62V370.873Z" stroke="#DDDDDD" stroke-width="1.5"/>
<path d="M1075.12 370.873H1046.62V399.388H1075.12V370.873Z" fill="#E2E7F0" fill-opacity="0.3" stroke="#DDDDDD" stroke-width="1.5"/>
<path d="M20.3835 427.903V399.388H-8.12292V427.903" stroke="#DDDDDD" stroke-width="1.5"/>
<path d="M48.89 427.903V399.388H20.3835V427.903" stroke="#DDDDDD" stroke-width="1.5"/>
<path d="M77.3965 427.903V399.388H48.89V427.903" stroke="#DDDDDD" stroke-width="1.5"/>
<path d="M105.903 427.903V399.388H77.3965V427.903" stroke="#DDDDDD" stroke-width="1.5"/>
<path d="M134.409 427.903V399.388H105.903V427.903" stroke="#DDDDDD" stroke-width="1.5"/>
<path d="M162.916 427.903V399.388H134.409V427.903" stroke="#DDDDDD" stroke-width="1.5"/>
<path d="M333.955 427.903V399.388H305.448V427.903" stroke="#DDDDDD" stroke-width="1.5"/>
<path d="M362.461 427.903V399.388H333.955V427.903" stroke="#DDDDDD" stroke-width="1.5"/>
<path d="M390.968 427.903V399.388H362.461V427.903" stroke="#DDDDDD" stroke-width="1.5"/>
<path d="M419.474 427.903V399.388H390.968V427.903" stroke="#DDDDDD" stroke-width="1.5"/>
<path d="M447.981 427.903V399.388H419.474V427.903" stroke="#DDDDDD" stroke-width="1.5"/>
<path d="M476.487 427.903V399.388H447.981V427.903" stroke="#DDDDDD" stroke-width="1.5"/>
<path d="M904.084 427.903V399.388H875.578V427.903" stroke="#DDDDDD" stroke-width="1.5"/>
<path d="M932.591 427.903V399.388H904.084V427.903" stroke="#DDDDDD" stroke-width="1.5"/>
<path d="M961.097 427.903V399.388H932.591V427.903" stroke="#DDDDDD" stroke-width="1.5"/>
<path d="M989.604 427.903V399.388H961.097V427.903" stroke="#DDDDDD" stroke-width="1.5"/>
<path d="M1018.11 427.903V399.388H989.604V427.903" stroke="#DDDDDD" stroke-width="1.5"/>
<path d="M1046.62 427.903V399.388H1018.11V427.903" stroke="#DDDDDD" stroke-width="1.5"/>
<path d="M1075.12 427.903V399.388H1046.62V427.903" stroke="#DDDDDD" stroke-width="1.5"/>
<path d="M20.4713 116.428L20.4713 169.072" stroke="url(#paint0_linear_36_3)" stroke-width="1.5" stroke-linecap="round" stroke-linejoin="round"/>
<g filter="url(#filter0_d_36_3)">
<path d="M932.591 177.407V124.763" stroke="url(#paint1_linear_36_3)" stroke-width="1.5" stroke-linecap="round" stroke-linejoin="round"/>
<path d="M162.916 200V147.356" stroke="url(#paint2_linear_36_3)" stroke-width="1.5" stroke-linecap="round" stroke-linejoin="round"/>
<path d="M219.994 58.3961L219.994 111.04" stroke="url(#paint3_linear_36_3)" stroke-width="1.5" stroke-linecap="round" stroke-linejoin="round"/>
<path d="M790.091 58.3961L790.091 111.04" stroke="url(#paint4_linear_36_3)" stroke-width="1.5" stroke-linecap="round" stroke-linejoin="round"/>
</g>
<rect x="263.989" width="539.022" height="399.388" fill="url(#paint5_radial_36_3)"/>
</g>
<path d="M202.825 340.558L201.142 339.516C201.128 339.352 201.112 339.189 201.094 339.026L202.541 337.676C202.688 337.539 202.754 337.336 202.714 337.14C202.695 337.043 202.651 336.952 202.587 336.877C202.523 336.802 202.441 336.744 202.349 336.71L200.499 336.018C200.453 335.859 200.405 335.699 200.354 335.541L201.508 333.939C201.566 333.858 201.602 333.765 201.614 333.667C201.625 333.569 201.611 333.469 201.573 333.378C201.536 333.287 201.475 333.207 201.398 333.145C201.32 333.084 201.229 333.044 201.131 333.028L199.181 332.711C199.105 332.564 199.027 332.418 198.947 332.273L199.766 330.474C199.807 330.384 199.825 330.285 199.817 330.187C199.809 330.088 199.776 329.994 199.721 329.912C199.666 329.829 199.591 329.762 199.503 329.717C199.416 329.672 199.318 329.651 199.219 329.654L197.24 329.723C197.138 329.595 197.033 329.469 196.927 329.344L197.382 327.416C197.405 327.32 197.402 327.22 197.376 327.125C197.349 327.03 197.298 326.943 197.228 326.873C197.158 326.803 197.072 326.752 196.977 326.725C196.881 326.698 196.781 326.696 196.685 326.719L194.758 327.173C194.632 327.067 194.506 326.963 194.377 326.861L194.447 324.881C194.451 324.783 194.429 324.685 194.384 324.597C194.339 324.509 194.272 324.434 194.19 324.379C194.108 324.324 194.013 324.291 193.915 324.283C193.816 324.275 193.718 324.293 193.628 324.334L191.829 325.154C191.684 325.074 191.538 324.996 191.391 324.919L191.073 322.969C191.058 322.871 191.017 322.779 190.956 322.702C190.894 322.625 190.814 322.564 190.723 322.527C190.632 322.489 190.533 322.475 190.435 322.486C190.337 322.498 190.243 322.534 190.163 322.592L188.56 323.745C188.402 323.695 188.243 323.647 188.083 323.601L187.392 321.751C187.358 321.658 187.3 321.576 187.225 321.512C187.15 321.448 187.059 321.404 186.963 321.384C186.866 321.365 186.765 321.371 186.671 321.401C186.577 321.432 186.493 321.486 186.426 321.558L185.076 323.006C184.913 322.988 184.749 322.972 184.586 322.958L183.544 321.274C183.492 321.19 183.419 321.121 183.333 321.073C183.247 321.025 183.15 321 183.051 321C182.953 321 182.856 321.025 182.769 321.073C182.683 321.121 182.611 321.19 182.559 321.274L181.517 322.958C181.353 322.972 181.189 322.988 181.026 323.006L179.676 321.558C179.609 321.486 179.524 321.432 179.43 321.402C179.336 321.371 179.236 321.365 179.139 321.385C179.042 321.404 178.952 321.448 178.877 321.512C178.802 321.576 178.744 321.658 178.71 321.751L178.018 323.601C177.858 323.647 177.7 323.695 177.541 323.745L175.939 322.592C175.858 322.534 175.765 322.498 175.667 322.487C175.569 322.475 175.47 322.489 175.378 322.527C175.287 322.565 175.207 322.625 175.146 322.702C175.085 322.78 175.044 322.871 175.028 322.969L174.71 324.919C174.563 324.995 174.417 325.074 174.272 325.154L172.474 324.334C172.384 324.293 172.285 324.275 172.187 324.283C172.088 324.291 171.994 324.325 171.912 324.38C171.745 324.491 171.647 324.681 171.655 324.881L171.723 326.861C171.596 326.963 171.469 327.068 171.343 327.173L169.416 326.719C169.32 326.696 169.22 326.699 169.125 326.726C169.03 326.753 168.943 326.804 168.873 326.873C168.803 326.943 168.752 327.03 168.725 327.125C168.698 327.22 168.696 327.32 168.719 327.416L169.173 329.344C169.067 329.469 168.963 329.596 168.861 329.723L166.882 329.654C166.783 329.651 166.685 329.673 166.597 329.718C166.509 329.763 166.434 329.829 166.379 329.911C166.324 329.994 166.291 330.088 166.283 330.187C166.276 330.285 166.293 330.384 166.334 330.474L167.154 332.273C167.074 332.418 166.995 332.564 166.919 332.711L164.969 333.028C164.872 333.044 164.78 333.084 164.703 333.146C164.625 333.207 164.565 333.287 164.527 333.378C164.489 333.469 164.475 333.569 164.487 333.667C164.498 333.765 164.534 333.858 164.592 333.939L165.746 335.541C165.696 335.699 165.647 335.858 165.601 336.018L163.751 336.71C163.659 336.744 163.576 336.802 163.512 336.877C163.448 336.952 163.404 337.042 163.385 337.139C163.366 337.236 163.372 337.337 163.402 337.431C163.433 337.525 163.487 337.609 163.559 337.676L165.006 339.026C164.988 339.189 164.972 339.353 164.958 339.516L163.275 340.558C163.191 340.61 163.122 340.682 163.073 340.769C163.025 340.855 163 340.952 163 341.051C163 341.149 163.025 341.247 163.073 341.333C163.122 341.419 163.191 341.491 163.275 341.543L164.958 342.585C164.972 342.749 164.988 342.913 165.006 343.076L163.559 344.426C163.487 344.493 163.433 344.577 163.403 344.671C163.373 344.765 163.367 344.865 163.386 344.962C163.405 345.059 163.449 345.149 163.513 345.224C163.577 345.3 163.659 345.357 163.751 345.392L165.601 346.083C165.647 346.243 165.696 346.402 165.746 346.561L164.592 348.163C164.534 348.243 164.498 348.337 164.487 348.435C164.475 348.533 164.489 348.633 164.527 348.724C164.565 348.815 164.625 348.895 164.703 348.956C164.78 349.018 164.872 349.058 164.97 349.074L166.919 349.391C166.995 349.539 167.074 349.684 167.154 349.83L166.334 351.628C166.293 351.717 166.276 351.816 166.284 351.915C166.292 352.013 166.325 352.108 166.38 352.19C166.492 352.357 166.682 352.455 166.882 352.447L168.86 352.378C168.963 352.506 169.067 352.632 169.173 352.758L168.719 354.686C168.673 354.881 168.731 355.086 168.873 355.228C169.014 355.371 169.22 355.428 169.416 355.382L171.343 354.928C171.469 355.034 171.596 355.138 171.723 355.24L171.655 357.219C171.651 357.318 171.673 357.416 171.718 357.504C171.763 357.592 171.829 357.667 171.911 357.722C171.993 357.776 172.088 357.809 172.187 357.817C172.285 357.825 172.384 357.808 172.474 357.766L174.272 356.947C174.417 357.027 174.562 357.105 174.71 357.182L175.028 359.131C175.044 359.228 175.084 359.32 175.146 359.397C175.207 359.475 175.287 359.535 175.378 359.573C175.469 359.611 175.569 359.625 175.667 359.614C175.765 359.602 175.858 359.566 175.939 359.509L177.541 358.354C177.699 358.405 177.858 358.453 178.018 358.5L178.71 360.349C178.78 360.536 178.942 360.675 179.139 360.714C179.236 360.733 179.336 360.728 179.43 360.697C179.524 360.667 179.609 360.613 179.676 360.541L181.026 359.094C181.188 359.112 181.352 359.128 181.516 359.143L182.558 360.826C182.61 360.91 182.683 360.979 182.769 361.027C182.855 361.075 182.952 361.1 183.051 361.1C183.149 361.1 183.246 361.075 183.333 361.027C183.419 360.979 183.491 360.91 183.543 360.826L184.585 359.143C184.749 359.128 184.913 359.112 185.076 359.094L186.425 360.541C186.562 360.688 186.765 360.754 186.962 360.714C187.058 360.695 187.149 360.651 187.224 360.587C187.299 360.523 187.357 360.441 187.391 360.349L188.083 358.5C188.243 358.453 188.402 358.405 188.56 358.354L190.163 359.509C190.243 359.566 190.337 359.603 190.435 359.614C190.533 359.625 190.632 359.611 190.723 359.573C190.814 359.536 190.894 359.475 190.956 359.398C191.017 359.32 191.057 359.229 191.073 359.131L191.391 357.182C191.538 357.105 191.684 357.026 191.829 356.947L193.627 357.766C193.717 357.808 193.816 357.825 193.914 357.817C194.013 357.809 194.108 357.776 194.19 357.722C194.272 357.667 194.338 357.592 194.383 357.504C194.428 357.416 194.45 357.318 194.446 357.219L194.377 355.24C194.505 355.137 194.632 355.034 194.757 354.928L196.685 355.382C196.781 355.405 196.881 355.403 196.976 355.376C197.071 355.349 197.157 355.298 197.227 355.228C197.37 355.086 197.427 354.881 197.381 354.686L196.928 352.758C197.033 352.632 197.137 352.506 197.239 352.378L199.219 352.447C199.317 352.451 199.415 352.429 199.503 352.384C199.591 352.339 199.666 352.272 199.72 352.19C199.832 352.023 199.85 351.81 199.766 351.628L198.946 349.83C199.026 349.684 199.105 349.539 199.181 349.391L201.131 349.074C201.228 349.058 201.32 349.017 201.397 348.956C201.475 348.895 201.535 348.815 201.573 348.724C201.611 348.632 201.625 348.533 201.613 348.435C201.602 348.337 201.565 348.243 201.508 348.163L200.354 346.561C200.404 346.402 200.453 346.243 200.499 346.083L202.348 345.392C202.536 345.321 202.675 345.159 202.713 344.962C202.733 344.865 202.727 344.765 202.697 344.671C202.667 344.577 202.613 344.493 202.54 344.426L201.094 343.076C201.111 342.913 201.127 342.749 201.141 342.585L202.825 341.543C202.909 341.491 202.978 341.419 203.026 341.333C203.075 341.247 203.1 341.15 203.1 341.051C203.1 340.952 203.075 340.855 203.027 340.769C202.979 340.683 202.909 340.61 202.825 340.558V340.558ZM191.558 354.524C191.249 354.457 190.979 354.27 190.808 354.004C190.637 353.738 190.578 353.415 190.644 353.106C190.677 352.953 190.739 352.808 190.828 352.679C190.917 352.551 191.03 352.441 191.161 352.356C191.292 352.271 191.439 352.212 191.593 352.184C191.747 352.156 191.905 352.158 192.058 352.191C192.367 352.258 192.637 352.444 192.808 352.71C192.98 352.975 193.039 353.298 192.972 353.607C192.906 353.916 192.72 354.186 192.455 354.358C192.19 354.53 191.867 354.589 191.558 354.524V354.524ZM190.986 350.655C190.847 350.625 190.703 350.623 190.562 350.649C190.422 350.674 190.288 350.728 190.168 350.805C190.049 350.883 189.945 350.983 189.864 351.101C189.784 351.218 189.727 351.35 189.697 351.49L189.099 354.279C187.199 355.141 185.136 355.585 183.05 355.581C180.917 355.584 178.808 355.12 176.874 354.221L176.276 351.431C176.247 351.292 176.19 351.16 176.109 351.042C176.028 350.925 175.925 350.824 175.805 350.747C175.685 350.669 175.552 350.616 175.411 350.59C175.271 350.564 175.127 350.567 174.988 350.597L172.525 351.125C172.068 350.654 171.642 350.153 171.252 349.625H183.233C183.369 349.625 183.459 349.6 183.459 349.477V345.239C183.459 345.115 183.369 345.091 183.233 345.091H179.729V342.404H183.519C183.865 342.404 185.369 342.503 185.849 344.425C186 345.016 186.331 346.939 186.557 347.555C186.782 348.245 187.699 349.625 188.676 349.625H194.646C194.714 349.625 194.787 349.617 194.863 349.603C194.449 350.166 193.995 350.698 193.505 351.196L190.986 350.655ZM174.416 354.465C174.263 354.498 174.105 354.501 173.951 354.472C173.797 354.444 173.65 354.386 173.519 354.301C173.388 354.216 173.274 354.106 173.185 353.977C173.097 353.848 173.034 353.703 173.002 353.55C172.935 353.241 172.994 352.918 173.165 352.652C173.337 352.387 173.607 352.2 173.916 352.133C174.222 352.075 174.538 352.139 174.798 352.311C175.058 352.483 175.24 352.75 175.305 353.055C175.37 353.36 175.314 353.678 175.148 353.941C174.981 354.205 174.719 354.393 174.416 354.465V354.465ZM169.871 336.035C169.999 336.324 170.007 336.652 169.893 336.947C169.78 337.242 169.554 337.48 169.265 337.609C169.122 337.672 168.968 337.707 168.812 337.71C168.655 337.714 168.5 337.687 168.354 337.631C168.208 337.575 168.074 337.49 167.961 337.382C167.848 337.274 167.757 337.145 167.694 337.002C167.566 336.713 167.558 336.385 167.671 336.09C167.785 335.795 168.011 335.557 168.3 335.428C168.443 335.365 168.597 335.33 168.753 335.326C168.909 335.322 169.065 335.349 169.211 335.406C169.357 335.462 169.49 335.547 169.603 335.655C169.717 335.763 169.808 335.892 169.871 336.035V336.035ZM168.474 339.346L171.039 338.207C171.302 338.089 171.508 337.873 171.612 337.604C171.715 337.335 171.708 337.036 171.591 336.772L171.063 335.578H173.14V344.943H168.949C168.577 343.635 168.389 342.281 168.39 340.921C168.39 340.389 168.419 339.863 168.474 339.346V339.346ZM179.73 338.437V335.676H184.677C184.933 335.676 186.482 335.972 186.482 337.13C186.482 338.092 185.294 338.436 184.317 338.436H179.73V338.437ZM197.71 340.921C197.71 341.288 197.697 341.65 197.67 342.01H196.166C196.015 342.01 195.955 342.109 195.955 342.256V342.947C195.955 344.573 195.038 344.927 194.235 345.017C193.47 345.103 192.621 344.696 192.517 344.228C192.065 341.69 191.313 341.147 190.126 340.211C191.6 339.275 193.133 337.894 193.133 336.046C193.133 334.05 191.765 332.793 190.833 332.177C189.524 331.314 188.076 331.141 187.685 331.141H172.129C174.239 328.787 177.097 327.119 180.331 326.512L182.165 328.436C182.263 328.539 182.381 328.622 182.511 328.68C182.642 328.737 182.782 328.769 182.925 328.772C183.067 328.775 183.209 328.751 183.342 328.699C183.475 328.647 183.596 328.57 183.699 328.471L185.751 326.509C190.05 327.309 193.689 329.985 195.787 333.657L194.382 336.829C194.266 337.093 194.259 337.392 194.362 337.661C194.466 337.93 194.672 338.146 194.935 338.264L197.639 339.465C197.686 339.945 197.71 340.43 197.71 340.921V340.921ZM182.165 324.876C182.278 324.768 182.412 324.683 182.557 324.627C182.703 324.57 182.859 324.543 183.015 324.546C183.171 324.55 183.325 324.584 183.469 324.648C183.612 324.711 183.741 324.802 183.849 324.915C184.067 325.144 184.185 325.45 184.178 325.766C184.17 326.082 184.038 326.382 183.809 326.601C183.696 326.709 183.563 326.794 183.417 326.851C183.271 326.907 183.116 326.934 182.959 326.931C182.803 326.927 182.649 326.893 182.506 326.829C182.363 326.766 182.234 326.675 182.126 326.562C181.908 326.333 181.79 326.027 181.797 325.711C181.804 325.395 181.937 325.095 182.165 324.876V324.876ZM196.103 336.093C196.166 335.95 196.257 335.821 196.37 335.713C196.483 335.605 196.617 335.52 196.763 335.464C196.909 335.408 197.064 335.381 197.22 335.384C197.377 335.388 197.531 335.423 197.674 335.486C197.963 335.615 198.189 335.853 198.302 336.148C198.416 336.443 198.408 336.771 198.28 337.06C198.216 337.203 198.126 337.332 198.012 337.44C197.899 337.548 197.766 337.633 197.62 337.689C197.474 337.746 197.318 337.773 197.162 337.769C197.005 337.765 196.851 337.73 196.708 337.667C196.42 337.538 196.194 337.3 196.08 337.005C195.967 336.71 195.975 336.382 196.103 336.093V336.093Z" fill="#20294F"/>
<path d="M88.5123 347.348L79.947 332.539C79.5543 331.859 78.5864 331.302 77.7963 331.302H72.4488C71.2059 331.302 70.6963 330.427 71.3163 329.358L74.2488 324.301C74.4815 323.9 74.481 323.406 74.2475 323.005C74.0139 322.604 73.5828 322.357 73.1163 322.357H65.6565C64.8663 322.357 63.8963 322.913 63.5008 323.592L49.0052 348.488C48.6098 349.167 48.6095 350.279 49.0047 350.958L52.7345 357.37C53.3559 358.439 54.3751 358.44 54.9992 357.373L57.9137 352.391C58.5378 351.324 59.557 351.326 60.1784 352.394L62.8206 356.936C63.2157 357.616 64.1854 358.171 64.9756 358.171H82.2135C83.0038 358.171 83.9735 357.616 84.3686 356.936L88.508 349.82C88.9031 349.141 88.905 348.028 88.5123 347.348ZM76.9449 346.635C77.5624 347.706 77.0508 348.582 75.8079 348.582H62.3996C61.1567 348.582 60.6482 347.707 61.2696 346.639L67.9791 335.104C68.6005 334.036 69.6174 334.036 70.2388 335.104L76.9449 346.635Z" fill="#20294F"/>
<path d="M383.646 181.137C381.14 181.137 378.924 180.728 376.998 179.909C375.089 179.074 373.589 177.813 372.498 176.125C371.407 174.438 370.862 172.29 370.862 169.682C370.862 167.534 371.228 165.702 371.961 164.185C372.694 162.651 373.717 161.398 375.029 160.426C376.342 159.455 377.867 158.713 379.606 158.202C381.362 157.691 383.254 157.358 385.282 157.205C387.481 157.034 389.245 156.83 390.575 156.591C391.921 156.336 392.893 155.986 393.49 155.543C394.086 155.083 394.385 154.478 394.385 153.728V153.625C394.385 152.603 393.992 151.818 393.208 151.273C392.424 150.728 391.419 150.455 390.191 150.455C388.845 150.455 387.745 150.753 386.893 151.35C386.058 151.929 385.555 152.824 385.385 154.034H372.396C372.566 151.648 373.325 149.449 374.671 147.438C376.035 145.409 378.021 143.79 380.629 142.58C383.237 141.353 386.492 140.739 390.396 140.739C393.208 140.739 395.731 141.071 397.964 141.736C400.197 142.384 402.098 143.296 403.666 144.472C405.234 145.631 406.427 146.995 407.245 148.563C408.081 150.114 408.498 151.801 408.498 153.625V180.523H395.305V175H394.998C394.214 176.466 393.26 177.651 392.135 178.554C391.027 179.458 389.757 180.114 388.325 180.523C386.91 180.932 385.35 181.137 383.646 181.137ZM388.248 172.239C389.322 172.239 390.328 172.017 391.265 171.574C392.22 171.131 392.995 170.492 393.592 169.657C394.189 168.821 394.487 167.807 394.487 166.614V163.341C394.112 163.495 393.711 163.639 393.285 163.776C392.876 163.912 392.433 164.04 391.956 164.159C391.495 164.279 391.001 164.389 390.473 164.492C389.961 164.594 389.424 164.688 388.862 164.773C387.771 164.943 386.876 165.225 386.177 165.617C385.495 165.992 384.984 166.461 384.643 167.023C384.319 167.568 384.157 168.182 384.157 168.864C384.157 169.955 384.541 170.79 385.308 171.37C386.075 171.949 387.055 172.239 388.248 172.239ZM427.412 141.25L433.14 153.421L439.174 141.25H453.185L442.651 160.887L453.696 180.523H439.787L433.14 168.046L426.696 180.523H412.583L423.73 160.887L413.299 141.25H427.412ZM458.203 180.523V141.25H472.316V180.523H458.203ZM465.26 137.159C463.35 137.159 461.714 136.529 460.35 135.267C458.987 134.006 458.305 132.489 458.305 130.716C458.305 128.943 458.987 127.426 460.35 126.165C461.714 124.904 463.35 124.273 465.26 124.273C467.186 124.273 468.822 124.904 470.169 126.165C471.532 127.426 472.214 128.943 472.214 130.716C472.214 132.489 471.532 134.006 470.169 135.267C468.822 136.529 467.186 137.159 465.26 137.159ZM498.428 181.239C494.166 181.239 490.519 180.395 487.485 178.708C484.451 177.003 482.124 174.634 480.505 171.6C478.885 168.549 478.076 165.012 478.076 160.989C478.076 156.966 478.885 153.438 480.505 150.404C482.124 147.353 484.451 144.983 487.485 143.296C490.519 141.591 494.166 140.739 498.428 140.739C502.689 140.739 506.337 141.591 509.371 143.296C512.405 144.983 514.732 147.353 516.351 150.404C517.97 153.438 518.78 156.966 518.78 160.989C518.78 165.012 517.97 168.549 516.351 171.6C514.732 174.634 512.405 177.003 509.371 178.708C506.337 180.395 502.689 181.239 498.428 181.239ZM498.53 170.807C499.723 170.807 500.755 170.407 501.624 169.605C502.493 168.804 503.166 167.662 503.644 166.179C504.121 164.696 504.36 162.932 504.36 160.887C504.36 158.824 504.121 157.06 503.644 155.594C503.166 154.111 502.493 152.969 501.624 152.168C500.755 151.367 499.723 150.966 498.53 150.966C497.269 150.966 496.186 151.367 495.283 152.168C494.38 152.969 493.689 154.111 493.212 155.594C492.735 157.06 492.496 158.824 492.496 160.887C492.496 162.932 492.735 164.696 493.212 166.179C493.689 167.662 494.38 168.804 495.283 169.605C496.186 170.407 497.269 170.807 498.53 170.807ZM524.507 180.523V141.25H537.905V148.716H538.314C539.132 146.262 540.53 144.318 542.507 142.887C544.485 141.455 546.837 140.739 549.564 140.739C552.326 140.739 554.703 141.472 556.698 142.938C558.692 144.387 559.894 146.313 560.303 148.716H560.712C561.377 146.313 562.791 144.387 564.956 142.938C567.121 141.472 569.661 140.739 572.576 140.739C576.343 140.739 579.394 141.949 581.729 144.37C584.081 146.79 585.257 150.012 585.257 154.034V180.523H571.144V157.614C571.144 155.892 570.709 154.546 569.84 153.574C568.97 152.586 567.803 152.091 566.337 152.091C564.888 152.091 563.738 152.586 562.885 153.574C562.05 154.546 561.632 155.892 561.632 157.614V180.523H548.132V157.614C548.132 155.892 547.698 154.546 546.828 153.574C545.959 152.586 544.791 152.091 543.326 152.091C542.354 152.091 541.519 152.313 540.82 152.756C540.121 153.199 539.576 153.838 539.184 154.674C538.809 155.492 538.621 156.472 538.621 157.614V180.523H524.507ZM617.991 154.341V164.978H593.446V154.341H617.991ZM626.39 180.523V141.25H640.095V148.716H640.504C641.22 145.955 642.353 143.935 643.904 142.657C645.473 141.378 647.305 140.739 649.402 140.739C650.015 140.739 650.62 140.79 651.217 140.892C651.831 140.978 652.419 141.105 652.981 141.276V153.318C652.282 153.08 651.421 152.901 650.399 152.782C649.376 152.662 648.498 152.603 647.765 152.603C646.385 152.603 645.14 152.918 644.032 153.549C642.941 154.162 642.081 155.032 641.45 156.157C640.819 157.264 640.504 158.568 640.504 160.068V180.523H626.39ZM693.507 154.034H680.518C680.45 153.233 680.169 152.543 679.674 151.963C679.18 151.384 678.541 150.941 677.757 150.634C676.99 150.31 676.137 150.148 675.2 150.148C673.99 150.148 672.95 150.37 672.081 150.813C671.211 151.256 670.785 151.887 670.802 152.705C670.785 153.284 671.032 153.821 671.544 154.316C672.072 154.81 673.086 155.193 674.586 155.466L682.564 156.898C686.586 157.631 689.578 158.867 691.538 160.605C693.515 162.327 694.512 164.637 694.529 167.534C694.512 170.33 693.677 172.759 692.024 174.821C690.387 176.867 688.146 178.452 685.299 179.577C682.47 180.685 679.24 181.239 675.609 181.239C669.609 181.239 664.913 180.012 661.521 177.557C658.146 175.103 656.262 171.864 655.87 167.841H669.882C670.069 169.086 670.683 170.049 671.723 170.73C672.779 171.395 674.109 171.728 675.711 171.728C677.007 171.728 678.072 171.506 678.907 171.063C679.76 170.62 680.194 169.989 680.211 169.171C680.194 168.421 679.819 167.824 679.086 167.381C678.37 166.938 677.245 166.58 675.711 166.307L668.757 165.08C664.751 164.381 661.751 163.051 659.757 161.091C657.762 159.131 656.774 156.608 656.791 153.523C656.774 150.796 657.49 148.486 658.939 146.594C660.404 144.685 662.492 143.236 665.203 142.247C667.93 141.242 671.16 140.739 674.893 140.739C680.569 140.739 685.044 141.915 688.316 144.267C691.606 146.62 693.336 149.875 693.507 154.034Z" fill="url(#paint6_radial_36_3)"/>
<path d="M283.618 222.196V219.545H297.544V222.196H292.149V237H289.013V222.196H283.618ZM303.177 229.33V237H300.092V219.545H303.109V226.134H303.263C303.569 225.395 304.044 224.812 304.686 224.386C305.334 223.955 306.157 223.739 307.157 223.739C308.067 223.739 308.859 223.929 309.535 224.31C310.211 224.69 310.734 225.247 311.103 225.98C311.478 226.713 311.666 227.608 311.666 228.665V237H308.581V229.142C308.581 228.261 308.353 227.577 307.899 227.088C307.45 226.594 306.819 226.347 306.007 226.347C305.461 226.347 304.973 226.466 304.541 226.705C304.115 226.937 303.78 227.276 303.535 227.719C303.297 228.162 303.177 228.699 303.177 229.33ZM320.606 237.256C319.294 237.256 318.16 236.983 317.206 236.438C316.257 235.886 315.527 235.108 315.015 234.102C314.504 233.091 314.248 231.901 314.248 230.531C314.248 229.185 314.504 228.003 315.015 226.986C315.532 225.963 316.254 225.168 317.18 224.599C318.106 224.026 319.194 223.739 320.444 223.739C321.251 223.739 322.013 223.869 322.728 224.131C323.45 224.386 324.086 224.784 324.638 225.324C325.194 225.864 325.632 226.551 325.95 227.386C326.268 228.216 326.427 229.205 326.427 230.352V231.298H315.697V229.219H323.47C323.464 228.628 323.336 228.102 323.086 227.642C322.836 227.176 322.487 226.81 322.038 226.543C321.595 226.276 321.078 226.142 320.487 226.142C319.856 226.142 319.302 226.295 318.825 226.602C318.348 226.903 317.976 227.301 317.709 227.795C317.447 228.284 317.314 228.821 317.308 229.406V231.222C317.308 231.983 317.447 232.636 317.726 233.182C318.004 233.722 318.393 234.136 318.893 234.426C319.393 234.71 319.978 234.852 320.649 234.852C321.098 234.852 321.504 234.79 321.868 234.665C322.231 234.534 322.547 234.344 322.814 234.094C323.081 233.844 323.282 233.534 323.419 233.165L326.3 233.489C326.118 234.25 325.771 234.915 325.26 235.483C324.754 236.045 324.106 236.483 323.317 236.795C322.527 237.102 321.623 237.256 320.606 237.256ZM340.701 237.256C339.422 237.256 338.314 236.974 337.377 236.412C336.439 235.849 335.712 235.062 335.195 234.051C334.684 233.04 334.428 231.858 334.428 230.506C334.428 229.153 334.684 227.969 335.195 226.952C335.712 225.935 336.439 225.145 337.377 224.582C338.314 224.02 339.422 223.739 340.701 223.739C341.979 223.739 343.087 224.02 344.025 224.582C344.962 225.145 345.687 225.935 346.198 226.952C346.715 227.969 346.974 229.153 346.974 230.506C346.974 231.858 346.715 233.04 346.198 234.051C345.687 235.062 344.962 235.849 344.025 236.412C343.087 236.974 341.979 237.256 340.701 237.256ZM340.718 234.784C341.411 234.784 341.991 234.594 342.456 234.213C342.922 233.827 343.269 233.31 343.496 232.662C343.729 232.014 343.846 231.293 343.846 230.497C343.846 229.696 343.729 228.972 343.496 228.324C343.269 227.67 342.922 227.151 342.456 226.764C341.991 226.378 341.411 226.185 340.718 226.185C340.008 226.185 339.417 226.378 338.945 226.764C338.479 227.151 338.13 227.67 337.897 228.324C337.67 228.972 337.556 229.696 337.556 230.497C337.556 231.293 337.67 232.014 337.897 232.662C338.13 233.31 338.479 233.827 338.945 234.213C339.417 234.594 340.008 234.784 340.718 234.784ZM356.223 223.909V226.295H348.484V223.909H356.223ZM350.419 237V222.673C350.419 221.793 350.601 221.06 350.964 220.474C351.334 219.889 351.828 219.452 352.447 219.162C353.067 218.872 353.754 218.727 354.51 218.727C355.044 218.727 355.518 218.77 355.933 218.855C356.348 218.94 356.655 219.017 356.853 219.085L356.24 221.472C356.109 221.432 355.944 221.392 355.746 221.352C355.547 221.307 355.325 221.284 355.081 221.284C354.507 221.284 354.101 221.423 353.862 221.702C353.629 221.974 353.513 222.366 353.513 222.878V237H350.419ZM365.27 223.909V226.295H357.531V223.909H365.27ZM359.466 237V222.673C359.466 221.793 359.648 221.06 360.011 220.474C360.38 219.889 360.875 219.452 361.494 219.162C362.113 218.872 362.801 218.727 363.557 218.727C364.091 218.727 364.565 218.77 364.98 218.855C365.395 218.94 365.701 219.017 365.9 219.085L365.287 221.472C365.156 221.432 364.991 221.392 364.792 221.352C364.594 221.307 364.372 221.284 364.128 221.284C363.554 221.284 363.148 221.423 362.909 221.702C362.676 221.974 362.559 222.366 362.559 222.878V237H359.466ZM367.686 237V223.909H370.771V237H367.686ZM369.237 222.051C368.748 222.051 368.328 221.889 367.976 221.565C367.623 221.236 367.447 220.841 367.447 220.381C367.447 219.915 367.623 219.52 367.976 219.196C368.328 218.866 368.748 218.702 369.237 218.702C369.731 218.702 370.152 218.866 370.498 219.196C370.851 219.52 371.027 219.915 371.027 220.381C371.027 220.841 370.851 221.236 370.498 221.565C370.152 221.889 369.731 222.051 369.237 222.051ZM379.654 237.256C378.347 237.256 377.225 236.969 376.287 236.395C375.356 235.821 374.637 235.028 374.131 234.017C373.631 233 373.381 231.83 373.381 230.506C373.381 229.176 373.637 228.003 374.148 226.986C374.66 225.963 375.381 225.168 376.313 224.599C377.251 224.026 378.358 223.739 379.637 223.739C380.699 223.739 381.64 223.935 382.458 224.327C383.282 224.713 383.938 225.261 384.427 225.972C384.915 226.676 385.194 227.5 385.262 228.443H382.313C382.194 227.812 381.91 227.287 381.461 226.866C381.018 226.44 380.424 226.227 379.679 226.227C379.049 226.227 378.495 226.398 378.018 226.739C377.54 227.074 377.168 227.557 376.901 228.188C376.64 228.818 376.509 229.574 376.509 230.455C376.509 231.347 376.64 232.114 376.901 232.756C377.162 233.392 377.529 233.884 378.001 234.23C378.478 234.571 379.037 234.741 379.679 234.741C380.134 234.741 380.54 234.656 380.898 234.486C381.262 234.31 381.566 234.057 381.81 233.727C382.054 233.398 382.222 232.997 382.313 232.526H385.262C385.188 233.452 384.915 234.273 384.444 234.989C383.972 235.699 383.33 236.256 382.518 236.659C381.705 237.057 380.751 237.256 379.654 237.256ZM387.795 237V223.909H390.88V237H387.795ZM389.346 222.051C388.858 222.051 388.437 221.889 388.085 221.565C387.733 221.236 387.557 220.841 387.557 220.381C387.557 219.915 387.733 219.52 388.085 219.196C388.437 218.866 388.858 218.702 389.346 218.702C389.841 218.702 390.261 218.866 390.608 219.196C390.96 219.52 391.136 219.915 391.136 220.381C391.136 220.841 390.96 221.236 390.608 221.565C390.261 221.889 389.841 222.051 389.346 222.051ZM397.82 237.264C396.991 237.264 396.243 237.116 395.579 236.821C394.92 236.52 394.397 236.077 394.01 235.491C393.63 234.906 393.439 234.185 393.439 233.327C393.439 232.588 393.576 231.977 393.849 231.494C394.121 231.011 394.493 230.625 394.965 230.335C395.437 230.045 395.968 229.827 396.559 229.679C397.155 229.526 397.772 229.415 398.408 229.347C399.175 229.267 399.797 229.196 400.275 229.134C400.752 229.065 401.099 228.963 401.314 228.827C401.536 228.685 401.647 228.466 401.647 228.17V228.119C401.647 227.477 401.456 226.98 401.076 226.628C400.695 226.276 400.147 226.099 399.431 226.099C398.675 226.099 398.076 226.264 397.633 226.594C397.195 226.923 396.9 227.312 396.746 227.761L393.866 227.352C394.093 226.557 394.468 225.892 394.991 225.358C395.513 224.818 396.152 224.415 396.908 224.148C397.664 223.875 398.499 223.739 399.414 223.739C400.045 223.739 400.672 223.812 401.297 223.96C401.922 224.108 402.493 224.352 403.01 224.693C403.527 225.028 403.942 225.486 404.255 226.065C404.573 226.645 404.732 227.369 404.732 228.239V237H401.766V235.202H401.664C401.476 235.565 401.212 235.906 400.871 236.224C400.536 236.537 400.113 236.79 399.601 236.983C399.096 237.17 398.502 237.264 397.82 237.264ZM398.621 234.997C399.241 234.997 399.777 234.875 400.232 234.631C400.687 234.381 401.036 234.051 401.28 233.642C401.53 233.233 401.655 232.787 401.655 232.304V230.761C401.559 230.841 401.394 230.915 401.161 230.983C400.934 231.051 400.678 231.111 400.394 231.162C400.11 231.213 399.829 231.259 399.55 231.298C399.272 231.338 399.03 231.372 398.826 231.401C398.366 231.463 397.954 231.565 397.59 231.707C397.226 231.849 396.939 232.048 396.729 232.304C396.519 232.554 396.414 232.878 396.414 233.276C396.414 233.844 396.621 234.273 397.036 234.562C397.451 234.852 397.979 234.997 398.621 234.997ZM410.92 219.545V237H407.834V219.545H410.92ZM420.182 237V219.545H426.727C428.068 219.545 429.193 219.778 430.102 220.244C431.017 220.71 431.707 221.364 432.173 222.205C432.645 223.04 432.88 224.014 432.88 225.128C432.88 226.247 432.642 227.219 432.165 228.043C431.693 228.861 430.997 229.494 430.076 229.943C429.156 230.386 428.025 230.608 426.684 230.608H422.023V227.983H426.258C427.042 227.983 427.684 227.875 428.184 227.659C428.684 227.437 429.054 227.116 429.292 226.696C429.537 226.27 429.659 225.747 429.659 225.128C429.659 224.509 429.537 223.98 429.292 223.543C429.048 223.099 428.676 222.764 428.176 222.537C427.676 222.304 427.031 222.188 426.241 222.188H423.344V237H420.182ZM429.199 229.091L433.52 237H429.991L425.747 229.091H429.199ZM443.998 231.494V223.909H447.084V237H444.092V234.673H443.956C443.66 235.406 443.175 236.006 442.498 236.472C441.828 236.937 441.001 237.17 440.018 237.17C439.16 237.17 438.402 236.98 437.743 236.599C437.089 236.213 436.578 235.653 436.209 234.92C435.839 234.182 435.655 233.29 435.655 232.244V223.909H438.74V231.767C438.74 232.597 438.967 233.256 439.422 233.744C439.876 234.233 440.473 234.477 441.211 234.477C441.666 234.477 442.106 234.366 442.532 234.145C442.959 233.923 443.308 233.594 443.581 233.156C443.859 232.713 443.998 232.159 443.998 231.494ZM460.603 227.369L457.79 227.676C457.711 227.392 457.572 227.125 457.373 226.875C457.179 226.625 456.918 226.423 456.589 226.27C456.259 226.116 455.856 226.04 455.378 226.04C454.736 226.04 454.197 226.179 453.759 226.457C453.327 226.736 453.114 227.097 453.12 227.54C453.114 227.92 453.253 228.23 453.537 228.469C453.827 228.707 454.304 228.903 454.969 229.057L457.202 229.534C458.441 229.801 459.361 230.224 459.964 230.804C460.572 231.384 460.878 232.142 460.884 233.08C460.878 233.903 460.637 234.631 460.16 235.261C459.688 235.886 459.032 236.375 458.191 236.727C457.35 237.08 456.384 237.256 455.293 237.256C453.691 237.256 452.401 236.92 451.424 236.25C450.447 235.574 449.864 234.634 449.677 233.429L452.685 233.139C452.822 233.73 453.111 234.176 453.554 234.477C453.998 234.778 454.574 234.929 455.285 234.929C456.018 234.929 456.606 234.778 457.049 234.477C457.498 234.176 457.722 233.804 457.722 233.361C457.722 232.986 457.577 232.676 457.287 232.432C457.003 232.187 456.56 232 455.958 231.869L453.725 231.401C452.469 231.139 451.54 230.699 450.938 230.08C450.336 229.455 450.037 228.665 450.043 227.71C450.037 226.903 450.256 226.205 450.699 225.614C451.148 225.017 451.77 224.557 452.566 224.233C453.367 223.903 454.29 223.739 455.336 223.739C456.87 223.739 458.077 224.065 458.958 224.719C459.844 225.372 460.393 226.256 460.603 227.369ZM469.965 223.909V226.295H462.439V223.909H469.965ZM464.297 220.773H467.383V233.062C467.383 233.477 467.445 233.795 467.57 234.017C467.701 234.233 467.871 234.381 468.081 234.46C468.292 234.54 468.525 234.58 468.78 234.58C468.974 234.58 469.15 234.565 469.309 234.537C469.474 234.509 469.599 234.483 469.684 234.46L470.204 236.872C470.039 236.929 469.803 236.991 469.496 237.06C469.195 237.128 468.826 237.168 468.388 237.179C467.616 237.202 466.92 237.085 466.3 236.83C465.681 236.568 465.189 236.165 464.826 235.619C464.468 235.074 464.292 234.392 464.297 233.574V220.773ZM478.635 237V219.545H481.72V226.074H481.848C482.007 225.756 482.231 225.418 482.521 225.06C482.811 224.696 483.203 224.386 483.697 224.131C484.192 223.869 484.822 223.739 485.589 223.739C486.601 223.739 487.513 223.997 488.325 224.514C489.143 225.026 489.791 225.784 490.268 226.79C490.751 227.79 490.993 229.017 490.993 230.472C490.993 231.909 490.757 233.131 490.285 234.136C489.814 235.142 489.172 235.909 488.359 236.438C487.547 236.966 486.626 237.23 485.598 237.23C484.848 237.23 484.226 237.105 483.731 236.855C483.237 236.605 482.839 236.304 482.538 235.952C482.243 235.594 482.013 235.256 481.848 234.938H481.669V237H478.635ZM481.66 230.455C481.66 231.301 481.78 232.043 482.018 232.679C482.263 233.315 482.612 233.812 483.067 234.17C483.527 234.523 484.084 234.699 484.737 234.699C485.419 234.699 485.99 234.517 486.45 234.153C486.91 233.784 487.257 233.281 487.49 232.645C487.728 232.003 487.848 231.273 487.848 230.455C487.848 229.642 487.731 228.92 487.498 228.29C487.265 227.659 486.919 227.165 486.459 226.807C485.998 226.449 485.425 226.27 484.737 226.27C484.078 226.27 483.518 226.443 483.058 226.79C482.598 227.136 482.248 227.622 482.01 228.247C481.777 228.872 481.66 229.608 481.66 230.455ZM493.616 237V223.909H496.701V237H493.616ZM495.167 222.051C494.678 222.051 494.258 221.889 493.905 221.565C493.553 221.236 493.377 220.841 493.377 220.381C493.377 219.915 493.553 219.52 493.905 219.196C494.258 218.866 494.678 218.702 495.167 218.702C495.661 218.702 496.081 218.866 496.428 219.196C496.78 219.52 496.956 219.915 496.956 220.381C496.956 220.841 496.78 221.236 496.428 221.565C496.081 221.889 495.661 222.051 495.167 222.051ZM502.959 229.33V237H499.873V223.909H502.822V226.134H502.976C503.277 225.401 503.757 224.818 504.416 224.386C505.081 223.955 505.902 223.739 506.879 223.739C507.782 223.739 508.569 223.932 509.24 224.318C509.916 224.705 510.439 225.264 510.808 225.997C511.183 226.73 511.368 227.619 511.362 228.665V237H508.277V229.142C508.277 228.267 508.05 227.582 507.595 227.088C507.146 226.594 506.524 226.347 505.728 226.347C505.189 226.347 504.709 226.466 504.288 226.705C503.873 226.937 503.547 227.276 503.308 227.719C503.075 228.162 502.959 228.699 502.959 229.33ZM519.356 237.23C518.328 237.23 517.407 236.966 516.595 236.438C515.782 235.909 515.14 235.142 514.669 234.136C514.197 233.131 513.961 231.909 513.961 230.472C513.961 229.017 514.2 227.79 514.677 226.79C515.16 225.784 515.811 225.026 516.629 224.514C517.447 223.997 518.359 223.739 519.365 223.739C520.132 223.739 520.763 223.869 521.257 224.131C521.751 224.386 522.143 224.696 522.433 225.06C522.723 225.418 522.947 225.756 523.106 226.074H523.234V219.545H526.328V237H523.294V234.938H523.106C522.947 235.256 522.717 235.594 522.416 235.952C522.115 236.304 521.717 236.605 521.223 236.855C520.728 237.105 520.106 237.23 519.356 237.23ZM520.217 234.699C520.871 234.699 521.427 234.523 521.888 234.17C522.348 233.812 522.697 233.315 522.936 232.679C523.175 232.043 523.294 231.301 523.294 230.455C523.294 229.608 523.175 228.872 522.936 228.247C522.703 227.622 522.356 227.136 521.896 226.79C521.442 226.443 520.882 226.27 520.217 226.27C519.53 226.27 518.956 226.449 518.496 226.807C518.035 227.165 517.689 227.659 517.456 228.29C517.223 228.92 517.106 229.642 517.106 230.455C517.106 231.273 517.223 232.003 517.456 232.645C517.694 233.281 518.044 233.784 518.504 234.153C518.97 234.517 519.541 234.699 520.217 234.699ZM529.616 237V223.909H532.701V237H529.616ZM531.167 222.051C530.678 222.051 530.258 221.889 529.905 221.565C529.553 221.236 529.377 220.841 529.377 220.381C529.377 219.915 529.553 219.52 529.905 219.196C530.258 218.866 530.678 218.702 531.167 218.702C531.661 218.702 532.081 218.866 532.428 219.196C532.78 219.52 532.956 219.915 532.956 220.381C532.956 220.841 532.78 221.236 532.428 221.565C532.081 221.889 531.661 222.051 531.167 222.051ZM538.959 229.33V237H535.873V223.909H538.822V226.134H538.976C539.277 225.401 539.757 224.818 540.416 224.386C541.081 223.955 541.902 223.739 542.879 223.739C543.782 223.739 544.569 223.932 545.24 224.318C545.916 224.705 546.439 225.264 546.808 225.997C547.183 226.73 547.368 227.619 547.362 228.665V237H544.277V229.142C544.277 228.267 544.05 227.582 543.595 227.088C543.146 226.594 542.524 226.347 541.728 226.347C541.189 226.347 540.709 226.466 540.288 226.705C539.873 226.937 539.547 227.276 539.308 227.719C539.075 228.162 538.959 228.699 538.959 229.33ZM556.192 242.182C555.084 242.182 554.132 242.031 553.336 241.73C552.541 241.435 551.902 241.037 551.419 240.537C550.936 240.037 550.601 239.483 550.413 238.875L553.192 238.202C553.317 238.457 553.498 238.71 553.737 238.96C553.976 239.216 554.297 239.426 554.7 239.591C555.109 239.761 555.623 239.847 556.243 239.847C557.118 239.847 557.842 239.634 558.416 239.207C558.99 238.787 559.277 238.094 559.277 237.128V234.648H559.123C558.964 234.966 558.731 235.293 558.425 235.628C558.123 235.963 557.723 236.244 557.223 236.472C556.728 236.699 556.106 236.812 555.356 236.812C554.351 236.812 553.439 236.577 552.621 236.105C551.808 235.628 551.16 234.918 550.677 233.974C550.2 233.026 549.961 231.838 549.961 230.412C549.961 228.974 550.2 227.761 550.677 226.773C551.16 225.778 551.811 225.026 552.629 224.514C553.447 223.997 554.359 223.739 555.365 223.739C556.132 223.739 556.763 223.869 557.257 224.131C557.757 224.386 558.155 224.696 558.45 225.06C558.746 225.418 558.97 225.756 559.123 226.074H559.294V223.909H562.336V237.213C562.336 238.332 562.069 239.259 561.535 239.991C561.001 240.724 560.271 241.273 559.345 241.636C558.419 242 557.368 242.182 556.192 242.182ZM556.217 234.392C556.871 234.392 557.427 234.233 557.888 233.915C558.348 233.597 558.697 233.139 558.936 232.543C559.175 231.946 559.294 231.23 559.294 230.395C559.294 229.571 559.175 228.849 558.936 228.23C558.703 227.611 558.356 227.131 557.896 226.79C557.442 226.443 556.882 226.27 556.217 226.27C555.53 226.27 554.956 226.449 554.496 226.807C554.035 227.165 553.689 227.656 553.456 228.281C553.223 228.901 553.106 229.605 553.106 230.395C553.106 231.196 553.223 231.898 553.456 232.5C553.694 233.097 554.044 233.562 554.504 233.898C554.97 234.227 555.541 234.392 556.217 234.392ZM575.845 227.369L573.032 227.676C572.953 227.392 572.814 227.125 572.615 226.875C572.422 226.625 572.16 226.423 571.831 226.27C571.501 226.116 571.098 226.04 570.621 226.04C569.978 226.04 569.439 226.179 569.001 226.457C568.569 226.736 568.356 227.097 568.362 227.54C568.356 227.92 568.496 228.23 568.78 228.469C569.069 228.707 569.547 228.903 570.211 229.057L572.444 229.534C573.683 229.801 574.603 230.224 575.206 230.804C575.814 231.384 576.121 232.142 576.126 233.08C576.121 233.903 575.879 234.631 575.402 235.261C574.93 235.886 574.274 236.375 573.433 236.727C572.592 237.08 571.626 237.256 570.535 237.256C568.933 237.256 567.643 236.92 566.666 236.25C565.689 235.574 565.106 234.634 564.919 233.429L567.927 233.139C568.064 233.73 568.353 234.176 568.797 234.477C569.24 234.778 569.817 234.929 570.527 234.929C571.26 234.929 571.848 234.778 572.291 234.477C572.74 234.176 572.964 233.804 572.964 233.361C572.964 232.986 572.819 232.676 572.53 232.432C572.246 232.187 571.802 232 571.2 231.869L568.967 231.401C567.711 231.139 566.782 230.699 566.18 230.08C565.578 229.455 565.28 228.665 565.285 227.71C565.28 226.903 565.498 226.205 565.942 225.614C566.39 225.017 567.013 224.557 567.808 224.233C568.609 223.903 569.532 223.739 570.578 223.739C572.112 223.739 573.319 224.065 574.2 224.719C575.086 225.372 575.635 226.256 575.845 227.369ZM591.254 223.909V226.295H583.515V223.909H591.254ZM585.45 237V222.673C585.45 221.793 585.632 221.06 585.996 220.474C586.365 219.889 586.859 219.452 587.478 219.162C588.098 218.872 588.785 218.727 589.541 218.727C590.075 218.727 590.55 218.77 590.964 218.855C591.379 218.94 591.686 219.017 591.885 219.085L591.271 221.472C591.14 221.432 590.976 221.392 590.777 221.352C590.578 221.307 590.356 221.284 590.112 221.284C589.538 221.284 589.132 221.423 588.893 221.702C588.66 221.974 588.544 222.366 588.544 222.878V237H585.45ZM598.888 237.256C597.61 237.256 596.502 236.974 595.564 236.412C594.627 235.849 593.9 235.062 593.383 234.051C592.871 233.04 592.616 231.858 592.616 230.506C592.616 229.153 592.871 227.969 593.383 226.952C593.9 225.935 594.627 225.145 595.564 224.582C596.502 224.02 597.61 223.739 598.888 223.739C600.167 223.739 601.275 224.02 602.212 224.582C603.15 225.145 603.874 225.935 604.385 226.952C604.902 227.969 605.161 229.153 605.161 230.506C605.161 231.858 604.902 233.04 604.385 234.051C603.874 235.062 603.15 235.849 602.212 236.412C601.275 236.974 600.167 237.256 598.888 237.256ZM598.905 234.784C599.599 234.784 600.178 234.594 600.644 234.213C601.11 233.827 601.456 233.31 601.684 232.662C601.917 232.014 602.033 231.293 602.033 230.497C602.033 229.696 601.917 228.972 601.684 228.324C601.456 227.67 601.11 227.151 600.644 226.764C600.178 226.378 599.599 226.185 598.905 226.185C598.195 226.185 597.604 226.378 597.133 226.764C596.667 227.151 596.317 227.67 596.084 228.324C595.857 228.972 595.743 229.696 595.743 230.497C595.743 231.293 595.857 232.014 596.084 232.662C596.317 233.31 596.667 233.827 597.133 234.213C597.604 234.594 598.195 234.784 598.905 234.784ZM607.78 237V223.909H610.771V226.091H610.907C611.146 225.335 611.555 224.753 612.135 224.344C612.72 223.929 613.388 223.722 614.138 223.722C614.308 223.722 614.498 223.73 614.709 223.747C614.925 223.759 615.103 223.778 615.246 223.807V226.645C615.115 226.599 614.907 226.56 614.623 226.526C614.345 226.486 614.075 226.466 613.814 226.466C613.251 226.466 612.746 226.588 612.297 226.832C611.853 227.071 611.504 227.403 611.248 227.83C610.993 228.256 610.865 228.747 610.865 229.304V237H607.78ZM629.785 223.909V226.295H622.26V223.909H629.785ZM624.118 220.773H627.203V233.062C627.203 233.477 627.265 233.795 627.39 234.017C627.521 234.233 627.692 234.381 627.902 234.46C628.112 234.54 628.345 234.58 628.601 234.58C628.794 234.58 628.97 234.565 629.129 234.537C629.294 234.509 629.419 234.483 629.504 234.46L630.024 236.872C629.859 236.929 629.623 236.991 629.317 237.06C629.015 237.128 628.646 237.168 628.209 237.179C627.436 237.202 626.74 237.085 626.121 236.83C625.501 236.568 625.01 236.165 624.646 235.619C624.288 235.074 624.112 234.392 624.118 233.574V220.773ZM635.732 229.33V237H632.647V219.545H635.664V226.134H635.817C636.124 225.395 636.599 224.812 637.241 224.386C637.888 223.955 638.712 223.739 639.712 223.739C640.621 223.739 641.414 223.929 642.09 224.31C642.766 224.69 643.289 225.247 643.658 225.98C644.033 226.713 644.221 227.608 644.221 228.665V237H641.135V229.142C641.135 228.261 640.908 227.577 640.454 227.088C640.005 226.594 639.374 226.347 638.562 226.347C638.016 226.347 637.527 226.466 637.096 226.705C636.67 226.937 636.334 227.276 636.09 227.719C635.851 228.162 635.732 228.699 635.732 229.33ZM653.161 237.256C651.849 237.256 650.715 236.983 649.76 236.438C648.812 235.886 648.081 235.108 647.57 234.102C647.059 233.091 646.803 231.901 646.803 230.531C646.803 229.185 647.059 228.003 647.57 226.986C648.087 225.963 648.809 225.168 649.735 224.599C650.661 224.026 651.749 223.739 652.999 223.739C653.806 223.739 654.567 223.869 655.283 224.131C656.005 224.386 656.641 224.784 657.192 225.324C657.749 225.864 658.187 226.551 658.505 227.386C658.823 228.216 658.982 229.205 658.982 230.352V231.298H648.252V229.219H656.025C656.019 228.628 655.891 228.102 655.641 227.642C655.391 227.176 655.042 226.81 654.593 226.543C654.15 226.276 653.633 226.142 653.042 226.142C652.411 226.142 651.857 226.295 651.38 226.602C650.902 226.903 650.53 227.301 650.263 227.795C650.002 228.284 649.868 228.821 649.863 229.406V231.222C649.863 231.983 650.002 232.636 650.28 233.182C650.559 233.722 650.948 234.136 651.448 234.426C651.948 234.71 652.533 234.852 653.204 234.852C653.652 234.852 654.059 234.79 654.422 234.665C654.786 234.534 655.101 234.344 655.368 234.094C655.635 233.844 655.837 233.534 655.974 233.165L658.854 233.489C658.672 234.25 658.326 234.915 657.814 235.483C657.309 236.045 656.661 236.483 655.871 236.795C655.081 237.102 654.178 237.256 653.161 237.256ZM669.923 237H666.548L672.693 219.545H676.596L682.75 237H679.375L674.713 223.125H674.576L669.923 237ZM670.034 230.156H679.238V232.696H670.034V230.156ZM687.435 223.909L690.077 228.741L692.762 223.909H696.026L692.08 230.455L696.094 237H692.847L690.077 232.287L687.333 237H684.06L688.049 230.455L684.162 223.909H687.435ZM698.412 237V223.909H701.498V237H698.412ZM699.964 222.051C699.475 222.051 699.054 221.889 698.702 221.565C698.35 221.236 698.174 220.841 698.174 220.381C698.174 219.915 698.35 219.52 698.702 219.196C699.054 218.866 699.475 218.702 699.964 218.702C700.458 218.702 700.878 218.866 701.225 219.196C701.577 219.52 701.753 219.915 701.753 220.381C701.753 220.841 701.577 221.236 701.225 221.565C700.878 221.889 700.458 222.051 699.964 222.051ZM710.38 237.256C709.102 237.256 707.994 236.974 707.057 236.412C706.119 235.849 705.392 235.062 704.875 234.051C704.363 233.04 704.108 231.858 704.108 230.506C704.108 229.153 704.363 227.969 704.875 226.952C705.392 225.935 706.119 225.145 707.057 224.582C707.994 224.02 709.102 223.739 710.38 223.739C711.659 223.739 712.767 224.02 713.704 224.582C714.642 225.145 715.366 225.935 715.878 226.952C716.395 227.969 716.653 229.153 716.653 230.506C716.653 231.858 716.395 233.04 715.878 234.051C715.366 235.062 714.642 235.849 713.704 236.412C712.767 236.974 711.659 237.256 710.38 237.256ZM710.398 234.784C711.091 234.784 711.67 234.594 712.136 234.213C712.602 233.827 712.949 233.31 713.176 232.662C713.409 232.014 713.525 231.293 713.525 230.497C713.525 229.696 713.409 228.972 713.176 228.324C712.949 227.67 712.602 227.151 712.136 226.764C711.67 226.378 711.091 226.185 710.398 226.185C709.687 226.185 709.096 226.378 708.625 226.764C708.159 227.151 707.809 227.67 707.576 228.324C707.349 228.972 707.236 229.696 707.236 230.497C707.236 231.293 707.349 232.014 707.576 232.662C707.809 233.31 708.159 233.827 708.625 234.213C709.096 234.594 709.687 234.784 710.398 234.784ZM719.272 237V223.909H722.221V226.134H722.374C722.647 225.384 723.099 224.798 723.729 224.378C724.36 223.952 725.113 223.739 725.988 223.739C726.874 223.739 727.621 223.955 728.229 224.386C728.843 224.812 729.275 225.395 729.525 226.134H729.661C729.951 225.406 730.439 224.827 731.127 224.395C731.82 223.957 732.641 223.739 733.59 223.739C734.795 223.739 735.777 224.119 736.539 224.881C737.3 225.642 737.681 226.753 737.681 228.213V237H734.587V228.69C734.587 227.878 734.371 227.284 733.939 226.909C733.508 226.528 732.979 226.338 732.354 226.338C731.61 226.338 731.027 226.571 730.607 227.037C730.192 227.497 729.985 228.097 729.985 228.835V237H726.959V228.562C726.959 227.886 726.755 227.347 726.346 226.943C725.942 226.54 725.414 226.338 724.76 226.338C724.317 226.338 723.914 226.452 723.55 226.679C723.187 226.901 722.897 227.216 722.681 227.625C722.465 228.028 722.357 228.5 722.357 229.04V237H719.272ZM749.142 237H745.767L751.912 219.545H755.815L761.969 237H758.594L753.932 223.125H753.795L749.142 237ZM749.253 230.156H758.457V232.696H749.253V230.156ZM764.268 237V219.545H770.813C772.154 219.545 773.279 219.795 774.188 220.295C775.103 220.795 775.793 221.483 776.259 222.358C776.731 223.227 776.966 224.216 776.966 225.324C776.966 226.443 776.731 227.437 776.259 228.307C775.787 229.176 775.091 229.861 774.171 230.361C773.251 230.855 772.117 231.102 770.77 231.102H766.432V228.503H770.344C771.128 228.503 771.77 228.366 772.27 228.094C772.77 227.821 773.14 227.446 773.378 226.969C773.623 226.491 773.745 225.943 773.745 225.324C773.745 224.705 773.623 224.159 773.378 223.688C773.14 223.216 772.768 222.849 772.262 222.588C771.762 222.321 771.117 222.188 770.327 222.188H767.429V237H764.268ZM782.875 219.545V237H779.713V219.545H782.875Z" fill="#09101F"/>
<path d="M129.863 347.597L120.062 337.804L121.673 336.185L131.474 345.986L129.863 347.597ZM121.673 347.597L120.062 345.986L129.863 336.185L131.474 337.804L121.673 347.597Z" fill="#20294F"/>
</g>
<rect x="0.786865" y="0.5" width="1065.67" height="399" stroke="#E0E0E0"/>
<defs>
<filter id="filter0_d_36_3" x="130.166" y="29.6461" width="835.175" height="207.104" filterUnits="userSpaceOnUse" color-interpolation-filters="sRGB">
<feFlood flood-opacity="0" result="BackgroundImageFix"/>
<feColorMatrix in="SourceAlpha" type="matrix" values="0 0 0 0 0 0 0 0 0 0 0 0 0 0 0 0 0 0 127 0" result="hardAlpha"/>
<feOffset dy="4"/>
<feGaussianBlur stdDeviation="16"/>
<feComposite in2="hardAlpha" operator="out"/>
<feColorMatrix type="matrix" values="0 0 0 0 0.1375 0 0 0 0 0.328673 0 0 0 0 1 0 0 0 1 0"/>
<feBlend mode="normal" in2="BackgroundImageFix" result="effect1_dropShadow_36_3"/>
<feBlend mode="normal" in="SourceGraphic" in2="effect1_dropShadow_36_3" result="shape"/>
</filter>
<linearGradient id="paint0_linear_36_3" x1="19.7213" y1="116.647" x2="-2.87256" y2="156.473" gradientUnits="userSpaceOnUse">
<stop stop-color="#6A68FF"/>
<stop offset="1" stop-color="#6C7EFF" stop-opacity="0"/>
</linearGradient>
<linearGradient id="paint1_linear_36_3" x1="-3.64529e+13" y1="177.186" x2="-3.64529e+13" y2="124.542" gradientUnits="userSpaceOnUse">
<stop stop-color="#6A68FF"/>
<stop offset="1" stop-color="#6C7EFF" stop-opacity="0"/>
</linearGradient>
<linearGradient id="paint2_linear_36_3" x1="-3.64529e+13" y1="199.779" x2="-3.64529e+13" y2="147.135" gradientUnits="userSpaceOnUse">
<stop stop-color="#6A68FF"/>
<stop offset="1" stop-color="#6C7EFF" stop-opacity="0"/>
</linearGradient>
<linearGradient id="paint3_linear_36_3" x1="3.64529e+13" y1="-225668" x2="3.64529e+13" y2="-225616" gradientUnits="userSpaceOnUse">
<stop stop-color="#6A68FF"/>
<stop offset="1" stop-color="#6C7EFF" stop-opacity="0"/>
</linearGradient>
<linearGradient id="paint4_linear_36_3" x1="3.64529e+13" y1="-225668" x2="3.64529e+13" y2="-225616" gradientUnits="userSpaceOnUse">
<stop stop-color="#6A68FF"/>
<stop offset="1" stop-color="#6C7EFF" stop-opacity="0"/>
</linearGradient>
<radialGradient id="paint5_radial_36_3" cx="0" cy="0" r="1" gradientUnits="userSpaceOnUse" gradientTransform="translate(533.5 199.694) rotate(90) scale(199.694 269.511)">
<stop stop-color="white"/>
<stop offset="1" stop-color="#D9D9D9" stop-opacity="0"/>
</radialGradient>
<radialGradient id="paint6_radial_36_3" cx="0" cy="0" r="1" gradientUnits="userSpaceOnUse" gradientTransform="translate(705.061 175.773) rotate(168.35) scale(328.519 9114.16)">
<stop stop-color="#0D0F26"/>
<stop offset="0.622778" stop-color="#384382"/>
<stop offset="0.773151" stop-color="#504F79"/>
<stop offset="1" stop-color="#0D0F26"/>
</radialGradient>
<clipPath id="clip0_36_3">
<rect x="0.286865" width="1066.67" height="400" fill="white"/>
</clipPath>
<clipPath id="clip1_36_3">
<rect width="1085" height="458" fill="white" transform="translate(-9 -29)"/>
</clipPath>
</defs>
</svg>
